<svg xmlns="http://www.w3.org/2000/svg" viewBox="0 0 128 128"><path fill="#bb2031" d="M17.888 49.795h8.418v29.462h-3.157v5.261h13.679v-6.313h-4.21V48.743h9.471v4.209h4.209v-8.418H12.627v8.418h5.26zm39.641-15.783H1.771c-.973 0-1.771 1.2-1.771 2.16v55.752c0 .96.798 2.064 1.77 2.064h55.76c.972 0 1.395-1.104 1.395-2.064V36.172c0-.96-.423-2.16-1.396-2.16zm-8.074 22.096h-9.47V51.9h-4.21v23.15h4.21v11.574H19.992V76.1h4.21V51.899h-4.21v4.21H9.47V41.376h39.985Zm20.57-.94a4.24 4.24 0 0 0-1.15.164 4.721 4.721 0 0 0-1.105.474 5.314 5.314 0 0 0-.977.744c-.3.288-.553.409-.76.765l-.329-2.259h-2.57v17.888h3.156v-10.43c0-.543.041-1.065.208-1.564.167-.502.388-.943.704-1.323.317-.38.7-.685 1.165-.916.466-.23.971-.345 1.571-.345.242 0 .561.161 1.613.483V55.48c0-.115-.515-.197-.797-.242a4.458 4.458 0 0 0-.73-.07zM88.22 70.496a.58.58 0 0 1-.32-.094.989.989 0 0 1-.26-.25c-.074-.105-.17-.223-.21-.355-.04-.133-.096-.268-.096-.407v-8.865c0-.968-.156-1.788-.542-2.463a4.828 4.828 0 0 0-1.528-1.658 6.663 6.663 0 0 0-2.203-.943 11.21 11.21 0 0 0-2.588-.293c-.795 0-1.59.11-2.39.329a7.166 7.166 0 0 0-2.193 1.011c-.663.456-1.216.831-1.66 1.528-.444.697-.693 2.281-.751 2.281h3.404c.068 0 .214-.676.432-1.011.22-.333.496-.505.83-.712.333-.208.717-.31 1.149-.409.431-.098.895-.12 1.39-.12 1.05 0 1.876.2 2.48.582.606.38.908 1.007.908 1.871 0 .37-.118.686-.354.945-.237.26-.556.495-.96.702a8.973 8.973 0 0 1-1.4.562c-.53.166-1.083.338-1.66.51a86.976 86.976 0 0 0-2.34.735c-.79.258-1.504.578-2.144.958-.639.38-1.16.839-1.564 1.374-.402.536-.604 1.196-.604 1.98 0 .77.14 1.47.422 2.099a4.841 4.841 0 0 0 1.15 1.606 5.126 5.126 0 0 0 1.71 1.03 6.071 6.071 0 0 0 2.108.363c.519 0 1.028-.035 1.53-.105.5-.068 1-.197 1.494-.388a7.068 7.068 0 0 0 1.478-.795 8.912 8.912 0 0 0 1.477-1.323c.196.819.552 1.458 1.071 1.918a2.645 2.645 0 0 0 1.815.692c.322 0 .638-.029.954-.087.32-.057 1.183-.159 1.183-.31v-2.816c0 .093-.571.17-.79.234-.219.063-.359.094-.428.094zm-4.043-3.594c-1.052 1.2-1.55 2.097-2.472 2.697-.921.599-1.893.898-2.86.898-.311 0-.627-.043-.92-.129a2.22 2.22 0 0 1-.794-.414 2.162 2.162 0 0 1-.565-.735c-.144-.3-.218-.657-.218-1.072 0-.45.153-.832.458-1.15a3.894 3.894 0 0 1 1.175-.811c.478-.225 1.01-.417 1.599-.58l1.736-.474a29.866 29.866 0 0 0 1.642-.484c.49-.168 1.219-.372 1.219-.614zm14.136 1.15-4.528-12.996h-3.578l6.498 17.888h3.37l6.446-17.888h-3.543zm10.065-19.31h3.157V51.9h-3.157zm0 6.314h3.157v17.888h-3.157zm19.19 11.293a4.57 4.57 0 0 0-1.14-1.202 8.862 8.862 0 0 0-1.616-.942 37.626 37.626 0 0 0-1.849-.786l-1.85-.726a11.951 11.951 0 0 1-1.615-.76c-.472-.271-.853-.568-1.14-.89a1.613 1.613 0 0 1-.433-1.107c0-.564.25-1.013.751-1.348.501-.333 1.23-.502 2.187-.502.426 0 .826.038 1.201.113.374.075.708.204 1.002.388.294.185.536.35.726.657.19.304.314 1.071.372 1.071h3.369c-.035-1.052-.227-1.623-.579-2.298-.351-.674-.824-1.183-1.417-1.62-.594-.438-1.288-.737-2.083-.944-.794-.207-1.659-.298-2.591-.298a9.652 9.652 0 0 0-2.36.29 6.33 6.33 0 0 0-2.004.876 4.56 4.56 0 0 0-1.4 1.48c-.35.592-.526 1.292-.526 2.1 0 .644.144 1.205.432 1.684.287.478.668.905 1.14 1.28.473.374 1.01.706 1.616.993a33.421 33.421 0 0 0 1.849.812 93.356 93.356 0 0 0 1.848.725c.605.23 1.143.481 1.617.753.472.27.852.57 1.14.898.288.33.433.706.433 1.132 0 .45-.121.823-.363 1.123a2.641 2.641 0 0 1-.917.718 4.31 4.31 0 0 1-1.218.371 8.34 8.34 0 0 1-1.288.104c-.496 0-.95-.06-1.365-.18a2.762 2.762 0 0 1-1.08-.589c-.306-.27-.55-.853-.735-1.285-.184-.432-.283-.76-.294-1.813h-3.421c.034 1.053.242 2.215.621 3.004.38.79.882 1.558 1.504 2.079.622.517 1.342.963 2.16 1.222a8.572 8.572 0 0 0 2.61.417c.956 0 1.865-.086 2.73-.287.865-.201 1.622-.517 2.273-.96a4.944 4.944 0 0 0 1.555-1.698c.386-.692.579-1.525.579-2.505.001-.585-.142-1.101-.43-1.55z"/></svg>
