<svg xmlns="http://www.w3.org/2000/svg" viewBox="0 0 128 128"><path fill="#bb2031" d="M4.659 0C3.513 0 2.377.34 1.498.988.619 1.636 0 2.628 0 3.826v119.94C0 126.161 2.302 128 4.659 128h119.953c1.179 0 2.096-.515 2.64-1.312s.748-1.826.748-2.922V3.826c0-1.096-.207-2.048-.771-2.75C126.665.373 125.759 0 124.612 0Zm0 .992h119.953c.946 0 1.485.26 1.843.706.359.446.553 1.16.553 2.128v119.94c0 .968-.197 1.808-.576 2.364-.379.556-.906.878-1.82.878H4.66c-1.827 0-3.667-1.509-3.667-3.243V3.825c0-.866.416-1.537 1.095-2.038.68-.501 1.626-.795 2.572-.795Zm15.992 14.496V47.46h24.742v-8.261h5.204V87.77H44.4v24.743h42.295V86.736h-9.293V38.165h8.3v9.294h22.679V15.49Zm.992.993h85.746v29.986H86.697v-9.294H76.41v50.556h9.293v23.79h-40.31V88.762h6.195V38.205H44.4v8.262H21.643Zm6.237 5.203v19.58h12.35v-8.262h17.596v61.996h-8.262v12.35h29.905V93.966H72.24V31.97h18.628v9.295h11.318v-19.58Zm.992.992h72.322v17.595H91.86v-9.294H71.248v63.98h7.229v11.4h-27.92V95.99h8.26V32.01H39.239v8.261H28.872Z"/></svg>
