<svg xmlns="http://www.w3.org/2000/svg" viewBox="0 0 128 128"><path fill="#bb2031" d="M2.254 33.748c-.687 0-1.253.408-1.636.909-.383.501-.618 1.117-.618 1.73v55.32c0 .614.24 1.215.628 1.694.388.479.955.85 1.626.85H57.58c.67 0 1.198-.42 1.483-.916.285-.497.395-1.079.395-1.628v-55.32c0-.548-.11-1.147-.39-1.664-.279-.517-.803-.975-1.49-.975zm0 .992h55.325c.279 0 .447.139.619.456.171.317.27.788.27 1.192v55.32c0 .403-.099.844-.264 1.133-.166.29-.329.419-.622.419H2.253c-.295 0-.608-.175-.857-.483s-.405-.731-.405-1.07v-55.32c0-.338.16-.795.415-1.127.254-.333.568-.52.847-.52zm7.143 6.316v15.609H20.83V52.49h3.185v23.022h-4.177v11.432h20.83V74.467H36.49V52.49h3.184v4.175h10.39V41.056Zm.993.992h38.682v13.624h-8.405v-4.174h-5.169v23.961h4.176v10.493H20.83v-9.448h4.177V51.498h-5.169v4.175H10.39zm2.14 2.14v9.345h6.212v-3.132h7.359v28.242h-3.132v6.212h14.566v-7.256h-4.176V49.357h8.405v4.176h5.168v-9.345zm.991.992H45.94v7.36h-3.184v-4.176h-10.39v30.227h4.177v5.271H23.96v-4.226h3.132V49.409H17.75v3.132h-4.229Zm94.018 3.184v4.126h4.124v-4.126zm.992.993h2.14v2.141h-2.14zM62.643 54.63v18.74h4.126V62.525c0-.513.04-.975.18-1.395.152-.456.343-.832.61-1.151.272-.327.59-.582.993-.781.394-.195.808-.291 1.34-.291.02 0 .394.133 1.455.457l.642.196v-4.014a.56.56 0 0 0-.185-.409.66.66 0 0 0-.186-.12 1.535 1.535 0 0 0-.296-.099c-.192-.047-.394-.078-.533-.1l-.01-.002a4.914 4.914 0 0 0-.794-.076h-.01a4.695 4.695 0 0 0-1.273.182 5.174 5.174 0 0 0-1.214.52v.002h-.002a5.761 5.761 0 0 0-1.058.806c-.019.018-.044.049-.064.066l-.244-1.686zm26.654 0 6.808 18.74h4.04l6.754-18.74h-4.571l-4.274 11.905-4.147-11.905zm18.242 0v18.74h4.124V54.63Zm12.884.097a10.076 10.076 0 0 0-2.462.304 6.775 6.775 0 0 0-2.141.936h-.002a5.024 5.024 0 0 0-1.54 1.63c-.4.673-.592 1.463-.592 2.335 0 .714.163 1.37.5 1.928.318.528.737.996 1.248 1.402.5.397 1.067.747 1.698 1.046v-.002a33.69 33.69 0 0 0 1.862.82 93.011 93.011 0 0 0 1.843.723c.58.22 1.09.459 1.533.713h.002c.431.247.762.513 1.004.789.215.247.306.485.306.794 0 .357-.085.599-.25.803a2.13 2.13 0 0 1-.736.575l-.002.002h-.002a3.778 3.778 0 0 1-1.07.326 7.784 7.784 0 0 1-1.2.097c-.45 0-.855-.055-1.216-.16l-.002-.001h-.002a2.245 2.245 0 0 1-.878-.479c-.137-.122-.418-.667-.601-1.097-.173-.405-.242-.594-.252-1.608l-.004-.493h-4.4l.018.514c.036 1.097.236 2.287.665 3.178.396.824.92 1.642 1.62 2.229h.002c.654.544 1.42 1.023 2.308 1.304a9.003 9.003 0 0 0 2.74.438h.002c.98 0 1.92-.089 2.822-.298.908-.211 1.717-.547 2.42-1.025h.003a5.417 5.417 0 0 0 1.695-1.853c.432-.773.638-1.69.638-2.727a3.3 3.3 0 0 0-.506-1.806 5.04 5.04 0 0 0-1.254-1.324 9.286 9.286 0 0 0-1.692-.988h-.002a37.89 37.89 0 0 0-1.858-.79l-1.837-.722h-.002a11.351 11.351 0 0 1-1.533-.723h-.002c-.432-.247-.766-.512-1.006-.783l-.004-.004-.004-.003a1.107 1.107 0 0 1-.296-.758v-.002c0-.413.135-.664.525-.925.377-.25 1.002-.414 1.894-.414.392 0 .757.035 1.094.102.319.064.592.172.828.32v-.002c.283.179.432.283.564.494v.002c.02.033.115.29.174.51.03.11.056.214.084.306.013.047.025.087.05.146a.514.514 0 0 0 .068.12.474.474 0 0 0 .108.112c.03.023.12.066.12.066l.185.035h3.856l-.017-.512c-.036-1.098-.263-1.789-.63-2.494-.386-.74-.917-1.308-1.552-1.777-.651-.48-1.402-.8-2.235-1.017-.838-.218-1.74-.312-2.698-.312zm-40.078.013a9.41 9.41 0 0 0-2.502.345 7.606 7.606 0 0 0-2.325 1.072c-.657.451-1.286.879-1.783 1.659-.29.454-.452 1.037-.58 1.533-.064.248-.114.47-.151.624a3.779 3.779 0 0 1-.043.163c-.003.012-.006.019.004-.006.006-.013.01-.032.045-.08a.465.465 0 0 1 .035-.042.955.955 0 0 1 .064-.056l.114-.066.184-.037v.992h3.378a.483.483 0 0 0 .37-.159c.053-.054.072-.09.09-.12.034-.061.05-.103.067-.147.035-.09.066-.184.1-.285.07-.204.164-.436.216-.516.155-.235.34-.352.67-.558.25-.154.57-.246.987-.34.37-.085.795-.11 1.271-.11.978 0 1.702.19 2.196.502h.002c.455.286.667.695.667 1.437a.82.82 0 0 1-.221.604c-.185.203-.453.404-.812.59a8.4 8.4 0 0 1-1.308.522l-.002.002h-.002c-.524.165-1.07.334-1.64.505a86.815 86.815 0 0 0-2.337.732c-.813.267-1.556.6-2.225.996a5.81 5.81 0 0 0-1.694 1.492c-.47.624-.7 1.399-.7 2.262 0 .826.153 1.594.464 2.287.305.68.727 1.27 1.258 1.756.53.485 1.153.86 1.86 1.122h.002a6.52 6.52 0 0 0 2.262.39c.537 0 1.064-.035 1.585-.107a7.105 7.105 0 0 0 1.593-.415h.002l.002-.002a7.51 7.51 0 0 0 1.57-.845h.002c.388-.276.72-.62 1.062-.952.229.553.43 1.134.849 1.506a3.121 3.121 0 0 0 2.135.814h.002a5.728 5.728 0 0 0 1.027-.093c.134-.024.44-.066.717-.122.14-.028.271-.056.404-.105.066-.024.13-.05.217-.112s.246-.202.246-.457V70.12h-.993c0-.244.147-.344.19-.374.044-.03.048-.028.041-.025a1.659 1.659 0 0 1-.155.042c-.151.035-.335.063-.504.113-.203.058-.366.073-.285.073h-.002a.08.08 0 0 1-.04-.011.486.486 0 0 1-.128-.122v-.002c-.088-.123-.138-.206-.138-.206a7.807 7.807 0 0 1-.076-.26v-8.796c0-1.014-.161-1.92-.602-2.69a5.314 5.314 0 0 0-1.67-1.812h-.003v-.002a7.112 7.112 0 0 0-2.347-1.004 11.621 11.621 0 0 0-2.68-.304zm-16.71.882h1.627l.469 3.225.715-1.23c.142-.245.32-.316.668-.65v-.002h.002a4.777 4.777 0 0 1 .876-.669 4.184 4.184 0 0 1 .981-.42h.002a3.712 3.712 0 0 1 1.002-.143h.004a3.915 3.915 0 0 1 .632.062h.006l.003.001c.114.019.254.045.374.07v2.365c-.375-.135-.813-.316-1.104-.316a3.94 3.94 0 0 0-3.095 1.428c-.363.435-.61.934-.789 1.475-.19.57-.23 1.145-.23 1.707v9.853h-2.142zm27.078 0h2.489l4.839 13.886.473-1.32 4.511-12.566h2.46l-6.037 16.756H96.8zm17.818 0h2.14v16.756h-2.14zm11.892.097c.892 0 1.71.09 2.447.281.744.194 1.369.466 1.896.855.542.4.95.84 1.261 1.438.248.476.317.98.39 1.554h-2.36l-.014-.05c-.064-.236-.125-.509-.293-.778-.246-.396-.576-.62-.876-.81h-.002a3.433 3.433 0 0 0-1.159-.451h-.002a6.594 6.594 0 0 0-1.288-.122c-1.009 0-1.827.17-2.444.581-.604.404-.967 1.044-.967 1.75-.002.532.2 1.045.562 1.434v.002c.328.367.746.69 1.248.977h.002a12.367 12.367 0 0 0 1.67.787l1.832.719a36.811 36.811 0 0 1 1.81.77 8.299 8.299 0 0 1 1.513.88c.427.318.76.67 1.01 1.06v.003c.233.363.35.77.349 1.27v.001c0 .907-.177 1.643-.512 2.243a4.389 4.389 0 0 1-1.39 1.517c-.588.4-1.278.69-2.087.878-.813.189-1.676.273-2.595.273a8.009 8.009 0 0 1-2.438-.39h-.002l-.002-.001c-.735-.233-1.395-.638-1.974-1.12-.534-.448-1.007-1.155-1.365-1.898-.265-.55-.384-1.439-.463-2.27h2.38c.049.61.105 1.157.25 1.499.182.426.388 1.036.857 1.451a3.241 3.241 0 0 0 1.263.688c.461.134.96.2 1.492.2.44 0 .891-.036 1.355-.109a4.778 4.778 0 0 0 1.345-.41l.004-.002a3.116 3.116 0 0 0 1.078-.845v-.002c.315-.392.47-.892.47-1.427s-.196-1.044-.55-1.45h-.002a4.878 4.878 0 0 0-1.258-.995 11.816 11.816 0 0 0-1.674-.78 92.039 92.039 0 0 1-1.824-.715 32.712 32.712 0 0 1-1.808-.794 7.794 7.794 0 0 1-1.508-.927 4.23 4.23 0 0 1-1.015-1.135c-.236-.391-.357-.85-.357-1.417 0-.729.156-1.329.454-1.831a4.032 4.032 0 0 1 1.236-1.306 5.783 5.783 0 0 1 1.832-.8h.002l.002-.003a9.067 9.067 0 0 1 2.219-.273zm-40.076.013h.002a10.611 10.611 0 0 1 2.451.278l.003.002h.001a6.108 6.108 0 0 1 2.02.864 4.272 4.272 0 0 1 1.362 1.479c.326.568.471 1.29.471 2.197v8.797c0 .273.09.45.118.546.08.263.219.412.28.496.104.148.236.274.387.374l.002.002a1.071 1.071 0 0 0 .591.175c.218 0 .332-.047.56-.112h.002v-.002c.016-.005.104-.023.15-.033v1.804c-.029.006-.039.011-.07.017-.23.046-.51.086-.694.119h-.004a4.72 4.72 0 0 1-.857.077h-.006a2.13 2.13 0 0 1-1.46-.556l-.003-.002-.004-.004c-.428-.38-.732-.91-.909-1.647l-.22-.923-.632.708a8.345 8.345 0 0 1-1.384 1.238 6.515 6.515 0 0 1-1.36.732 6.11 6.11 0 0 1-1.369.355 10.549 10.549 0 0 1-1.45.099h-.003a5.523 5.523 0 0 1-1.917-.33h-.002a4.57 4.57 0 0 1-1.53-.92 4.296 4.296 0 0 1-1.024-1.432c-.249-.554-.376-1.175-.376-1.88 0-.693.17-1.226.5-1.665a4.805 4.805 0 0 1 1.409-1.236c.6-.357 1.275-.658 2.027-.905h.002a85.844 85.844 0 0 1 2.31-.725c.574-.172 1.124-.343 1.65-.508l.003-.002a9.402 9.402 0 0 0 1.463-.587h.002l.002-.002c.44-.227.807-.492 1.091-.804h.002c.315-.345.48-.8.48-1.272 0-.972-.387-1.807-1.133-2.275-.706-.445-1.62-.655-2.724-.655-.508 0-1.004.022-1.49.132-.44.1-.88.212-1.293.469-.332.206-.696.43-.975.855v.002c-.165.252-.252.52-.326.736l-.013.04h-2.405c.02-.087.037-.155.062-.251.12-.464.302-1.01.453-1.248.384-.602.85-.921 1.51-1.374a6.607 6.607 0 0 1 2.023-.932l.002-.002h.002a8.4 8.4 0 0 1 2.24-.309zm3.26 8.074c-.02.014-.098.06-.2.103-.202.085-.494.174-.748.261a29.153 29.153 0 0 1-1.603.473h-.002l-1.725.473h-.001c-.607.167-1.162.367-1.665.603a4.34 4.34 0 0 0-1.312.913 2.126 2.126 0 0 0-.593 1.482c0 .47.084.9.263 1.275l.002.002v.002a2.64 2.64 0 0 0 .688.894l.002.002.002.002c.285.235.614.401.963.504a3.747 3.747 0 0 0 1.053.149c1.063 0 2.124-.333 3.108-.973 1.036-.674 1.542-1.607 2.557-2.763l.122-.142v-3.033h-.993c0-.189.101-.24.082-.227zm-.082 1.11v1.772c-.96 1.122-1.475 1.962-2.227 2.451-.844.55-1.71.812-2.567.812a2.79 2.79 0 0 1-.773-.108 1.703 1.703 0 0 1-.61-.316l-.001-.002a1.646 1.646 0 0 1-.428-.558v-.002l-.002-.002c-.105-.219-.167-.495-.167-.849 0-.333.094-.567.316-.796.253-.264.589-.498 1.02-.7a9.46 9.46 0 0 1 1.505-.546v.001l1.72-.47a30.128 30.128 0 0 0 1.656-.489h.004l.004-.002c.155-.053.357-.126.55-.195z"/></svg>
