<svg xmlns="http://www.w3.org/2000/svg" viewBox="0 0 128 128"><path d="M10.413 19.018C4.671 19.018 0 23.682 0 29.426v69.148c0 5.744 4.671 10.408 10.413 10.408h107.174c5.742 0 10.413-4.664 10.413-10.408V29.426c0-5.744-4.671-10.408-10.413-10.408zm0 2.84h107.174a7.523 7.523 0 0 1 7.573 7.568v69.148a7.523 7.523 0 0 1-7.573 7.567H10.413a7.523 7.523 0 0 1-7.573-7.567V29.426a7.523 7.523 0 0 1 7.573-7.567zm4.627 2.99c-5.075 0-9.21 4.128-9.21 9.205v59.889c0 5.076 4.134 9.21 9.21 9.21h97.92c5.076 0 9.21-4.134 9.21-9.21v-59.89c0-5.076-4.135-9.203-9.21-9.203zm0 2.841h97.92c3.551 0 6.369 2.813 6.369 6.364v59.889a6.327 6.327 0 0 1-6.37 6.369H15.04a6.327 6.327 0 0 1-6.369-6.37V34.054c0-3.55 2.818-6.364 6.37-6.364zm48.838 13.332c-2.73.002-4.974 2.246-4.976 4.976v4.55c-.002 2.732 2.243 4.979 4.976 4.981h8.216a2.116 2.116 0 0 1 2.136 2.136v24.327c-.002 2.736 2.246 4.984 4.982 4.982h4.544c2.736.002 4.984-2.246 4.982-4.982V57.664a2.116 2.116 0 0 1 2.136-2.136h8.216c2.736-.002 4.983-2.257 4.977-4.993v-4.538c-.002-2.73-2.247-4.974-4.977-4.976zM25.48 42.186c-1.6 0-3.058.763-3.073 2.224-.263.458.432 1.68.715 2.125L33.67 62.63v.006a2.487 2.487 0 0 1 0 2.746v.006L23.123 81.454c-1.182 1.802.19 4.35 2.347 4.355h7.44a6.134 6.134 0 0 0 5.165-2.824l10.33-16.039v-.006a5.424 5.424 0 0 0 0-5.864l-10.33-16.072v-.006a6.131 6.131 0 0 0-5.165-2.812zm38.397 1.675H99.09a2.116 2.116 0 0 1 2.136 2.136V50.546a2.115 2.115 0 0 1-2.136 2.142h-8.216c-2.73.002-4.974 2.246-4.977 4.976v24.328a2.12 2.12 0 0 1-2.141 2.141h-4.544a2.12 2.12 0 0 1-2.141-2.141V57.664c-.002-2.73-2.247-4.974-4.977-4.976h-8.216a2.118 2.118 0 0 1-2.136-2.141v-4.55a2.116 2.116 0 0 1 2.136-2.136zm-38.352 1.165h7.384a3.3 3.3 0 0 1 2.78 1.515l10.33 16.066c.549.855.549 1.947 0 2.802L35.69 81.448v.006a3.296 3.296 0 0 1-2.78 1.514h-7.384l10.518-16.022v-.006a5.35 5.35 0 0 0 0-5.864v-.006z" fill="#ffffff"/></svg>
