<svg xmlns="http://www.w3.org/2000/svg" viewBox="0 0 128 128"><path d="M3.166 48.664A3.158 3.158 0 0 0 0 51.828v24.344a3.158 3.158 0 0 0 3.166 3.164h37.73a3.158 3.158 0 0 0 3.166-3.164V51.828a3.158 3.158 0 0 0-3.166-3.164zm1.629 2.053h34.472a2.735 2.735 0 0 1 2.743 2.74v21.084a2.737 2.737 0 0 1-2.743 2.742H4.795a2.737 2.737 0 0 1-2.743-2.742V53.457a2.735 2.735 0 0 1 2.743-2.74zm41.32.043v3.431H51.6v17.393h4.171V54.191h5.483V50.76zm58.135 4.611c-.942 0-1.861.178-2.758.537a6.825 6.825 0 0 0-2.39 1.615c-.695.696-1.256 1.571-1.682 2.625-.427 1.054-.639 2.276-.639 3.666 0 1.346.202 2.525.606 3.534.404 1.009.977 1.861 1.717 2.556.762.673 1.67 1.188 2.724 1.547 1.076.337 2.287.506 3.633.506 1.01 0 1.917-.09 2.725-.27a17.023 17.023 0 0 0 2.289-.605l-.572-3.533c-.516.18-1.156.358-1.918.537-.74.18-1.526.271-2.356.271-1.345 0-2.444-.291-3.297-.875-.852-.605-1.28-1.425-1.28-2.457h10.263c.022-.179.033-.415.033-.707.023-.291.033-.57.033-.84 0-2.646-.605-4.653-1.816-6.021-1.211-1.39-2.982-2.086-5.315-2.086zm-17.125.066c-1.077 0-2.175.08-3.297.237-1.098.156-2.028.359-2.79.605v20.856h4.136v-5.953c1.121.515 2.21.773 3.264.773 1.032 0 1.94-.201 2.724-.605a5.436 5.436 0 0 0 1.951-1.682c.516-.74.909-1.616 1.178-2.625.269-1.031.404-2.153.404-3.363v-.002c0-2.534-.65-4.54-1.95-6.02-1.301-1.48-3.175-2.22-5.62-2.22zm35.864.034c-1.548 0-2.905.122-4.07.369a25.152 25.152 0 0 0-3.366.976v14.77h4.172V59.844a9.603 9.603 0 0 1 1.717-.303c.56-.067 1.131-.1 1.714-.1.247 0 .55.012.909.034.358.022.728.067 1.11.134.38.045.752.101 1.11.168.382.068.706.136.975.203l.74-3.836a6.539 6.539 0 0 0-1.31-.304c-.472-.09-.944-.157-1.414-.201-.471-.068-.92-.112-1.346-.135a18.566 18.566 0 0 0-.941-.033zm-59.65.302c.809 3.072 1.708 5.886 2.694 8.444.987 2.534 1.973 4.79 2.96 6.763a6.13 6.13 0 0 1-1.179 1.917c-.493.538-1.143.808-1.95.808a4.7 4.7 0 0 1-1.145-.135 5.649 5.649 0 0 1-1.176-.404l-.773 3.465c.382.18.852.325 1.412.437a10.19 10.19 0 0 0 1.918.168c.829 0 1.546-.1 2.152-.302a4.773 4.773 0 0 0 1.682-.942c.516-.403.977-.931 1.38-1.582.426-.65.851-1.424 1.278-2.322a51.72 51.72 0 0 0 1.549-3.799 76.09 76.09 0 0 0 1.379-3.97c.426-1.369.83-2.76 1.21-4.173.404-1.435.819-2.893 1.245-4.373h-4.239c-.179.852-.381 1.75-.605 2.692-.202.942-.415 1.884-.639 2.826-.224.92-.46 1.838-.707 2.758-.246.897-.483 1.738-.707 2.523a59.126 59.126 0 0 1-1.01-2.523c-.314-.92-.616-1.851-.908-2.793-.291-.942-.57-1.882-.84-2.824-.246-.942-.472-1.83-.674-2.659zm-41.35.637a1.253 1.253 0 0 0-1.253 1.252v1.602a1.253 1.253 0 0 0 1.252 1.254h2.893a1.253 1.253 0 0 1 1.252 1.252v8.564a1.253 1.253 0 0 0 1.254 1.254h1.6a1.253 1.253 0 0 0 1.253-1.254V61.77a1.253 1.253 0 0 1 1.252-1.252h2.893a1.253 1.253 0 0 0 1.252-1.256v-1.6a1.253 1.253 0 0 0-1.252-1.252Zm-13.519.41a.49.49 0 0 0-.41.758h-.002l3.713 5.666a1.38 1.38 0 0 1 0 1.518l-3.713 5.656a.49.49 0 0 0 .409.76h2.619a1.66 1.66 0 0 0 1.398-.764l3.637-5.648a1.41 1.41 0 0 0 0-1.526l-3.637-5.658a1.66 1.66 0 0 0-1.398-.762zm95.847 2.016c.56 0 1.032.1 1.414.303.381.179.694.426.941.74s.425.673.537 1.076c.112.381.168.784.168 1.211h-6.324a5.87 5.87 0 0 1 .27-1.244c.156-.404.358-.763.605-1.076.27-.315.595-.562.976-.74.404-.18.875-.27 1.413-.27zm-17.225.133c1.144 0 1.997.46 2.558 1.38.56.897.84 2.052.84 3.465 0 1.458-.236 2.59-.707 3.397-.471.785-1.199 1.178-2.185 1.178-.449 0-.9-.056-1.348-.168-.449-.112-.807-.258-1.076-.438v-8.68c.247-.022.55-.044.908-.066.36-.045.697-.068 1.01-.068z" fill="#ffffff"/></svg>
