<svg xmlns="http://www.w3.org/2000/svg" viewBox="0 0 128 128"><path d="M3.637 48.286a3.64 3.64 0 0 0-3.638 3.636v24.156a3.64 3.64 0 0 0 3.638 3.635h37.438a3.64 3.64 0 0 0 3.638-3.635V51.922a3.64 3.64 0 0 0-3.638-3.635zm0 .993h37.438a2.628 2.628 0 0 1 2.646 2.643v24.156a2.628 2.628 0 0 1-2.646 2.643H3.637A2.628 2.628 0 0 1 .99 76.078V51.922a2.628 2.628 0 0 1 2.646-2.643zm1.616 1.044a3.22 3.22 0 0 0-3.217 3.216v20.92a3.222 3.222 0 0 0 3.217 3.218h34.206a3.222 3.222 0 0 0 3.217-3.217V53.539a3.22 3.22 0 0 0-3.217-3.216zm41 .043a.496.496 0 0 0-.495.496v3.405c0 .274.222.496.496.496H51.2v16.762c0 .274.222.496.496.496h4.14a.496.496 0 0 0 .495-.496V54.763h4.944a.496.496 0 0 0 .496-.496v-3.405a.496.496 0 0 0-.496-.496zm-41 .95h34.206c1.24 0 2.225.982 2.225 2.223v20.92a2.21 2.21 0 0 1-2.225 2.225H5.253a2.21 2.21 0 0 1-2.225-2.224V53.539c0-1.24.984-2.223 2.225-2.223zm41.497.042h14.03v2.413h-4.945a.496.496 0 0 0-.496.496V71.03h-3.147V54.267a.496.496 0 0 0-.496-.496H46.75zm57.189 3.584c-.997 0-1.975.19-2.92.568a7.285 7.285 0 0 0-2.541 1.717c-.741.742-1.333 1.669-1.776 2.765-.451 1.117-.67 2.394-.67 3.824 0 1.385.206 2.618.636 3.69a7.51 7.51 0 0 0 1.825 2.715l.012.01c.808.714 1.769 1.257 2.87 1.632l.014.004c1.123.351 2.375.525 3.752.525 1.026 0 1.957-.091 2.798-.277h.004c.82-.16 1.599-.366 2.334-.619a.496.496 0 0 0 .33-.548l-.569-3.506a.496.496 0 0 0-.653-.39 19.149 19.149 0 0 1-1.859.52 9.355 9.355 0 0 1-2.219.256c-1.261 0-2.24-.272-2.986-.781-.576-.41-.837-.921-.95-1.533h9.578c.25 0 .462-.187.492-.436.025-.2.034-.441.035-.723l.002-.039c.021-.287.033-.566.033-.833 0-2.7-.619-4.825-1.924-6.3-1.305-1.5-3.234-2.241-5.648-2.241zm-16.993.066c-1.092 0-2.207.079-3.34.238v.002c-1.111.158-2.06.362-2.853.618a.496.496 0 0 0-.344.473v20.694c0 .274.223.496.497.496h4.104a.496.496 0 0 0 .496-.496v-5.289c.924.342 1.846.646 2.743.646 1.089 0 2.073-.214 2.93-.655a5.916 5.916 0 0 0 2.113-1.822l.003-.006c.55-.788.96-1.711 1.24-2.76l.003-.003c.278-1.07.416-2.223.416-3.462v-.002c0-2.599-.677-4.726-2.06-6.3-1.392-1.584-3.422-2.372-5.948-2.372zm35.586.033c-1.561 0-2.94.123-4.141.377h-.002c-1.158.25-2.293.58-3.405.989a.496.496 0 0 0-.326.465v14.655c0 .274.222.496.496.496h4.14a.496.496 0 0 0 .496-.496V60.291c.421-.096.843-.188 1.248-.221a14.992 14.992 0 0 1 2.531-.064v-.002a9.41 9.41 0 0 1 1.074.131 15.758 15.758 0 0 1 1.074.163c.369.065.68.13.934.194a.496.496 0 0 0 .606-.385l.735-3.807a.496.496 0 0 0-.32-.562 6.986 6.986 0 0 0-1.374-.322h-.006c-.474-.09-.948-.157-1.42-.203-.48-.069-.939-.116-1.378-.14a18.597 18.597 0 0 0-.962-.033zm-59.187.3a.496.496 0 0 0-.48.622c.805 3.064 1.703 5.873 2.69 8.43v.002a80.448 80.448 0 0 0 2.845 6.5c-.26.609-.574 1.153-.981 1.598-.399.435-.88.641-1.57.641a4.168 4.168 0 0 1-1.039-.124 5.162 5.162 0 0 1-1.06-.366.496.496 0 0 0-.688.343l-.767 3.438a.496.496 0 0 0 .273.558c.427.2.93.354 1.515.471h.004c.615.118 1.28.176 1.996.176.862 0 1.624-.104 2.29-.325h.003a5.243 5.243 0 0 0 1.827-1.025c.558-.438 1.048-1.001 1.47-1.679l.001-.002c.439-.669.869-1.455 1.299-2.36l.004-.008a51.839 51.839 0 0 0 1.548-3.798l.004-.008a76.055 76.055 0 0 0 1.374-3.96v-.001c.424-1.363.826-2.747 1.206-4.154l.002-.003c.4-1.422.81-2.866 1.232-4.332a.496.496 0 0 0-.477-.634h-4.205a.496.496 0 0 0-.487.394c-.176.84-.375 1.728-.596 2.659l-.002.01c-.2.93-.41 1.863-.632 2.794-.222.908-.454 1.816-.698 2.723-.106.387-.204.723-.306 1.09-.152-.381-.302-.732-.454-1.136a99.289 99.289 0 0 1-.891-2.745c-.287-.927-.562-1.852-.828-2.78-.244-.933-.467-1.81-.666-2.63a.496.496 0 0 0-.483-.378zm40.594.593c2.216 0 3.802.638 4.9 1.9l.001.003c1.097 1.239 1.679 3.095 1.679 5.646 0 .253-.01.518-.031.794l-.002.039c0 .089-.008.13-.01.205h-9.71a.496.496 0 0 0-.496.496c0 1.161.525 2.166 1.479 2.844a.199.199 0 0 0 .006.003c.946.648 2.145.956 3.552.956.859 0 1.678-.095 2.452-.283.546-.129.96-.257 1.387-.388l.407 2.516c-.577.18-1.166.353-1.804.477-.005 0-.009 0-.014.002-.758.169-1.623.255-2.595.255-1.29 0-2.438-.162-3.447-.476-.987-.337-1.824-.815-2.526-1.433-.677-.638-1.202-1.414-1.577-2.352-.373-.93-.566-2.036-.566-3.322 0-1.33.202-2.477.597-3.452.402-.994.923-1.803 1.56-2.44l.006-.005a6.258 6.258 0 0 1 2.2-1.487 6.798 6.798 0 0 1 2.552-.498zm-81.626.039c-.953 0-1.737.784-1.738 1.738v1.59c0 .954.784 1.739 1.738 1.74h2.87a.74.74 0 0 1 .747.746v8.498c-.001.956.784 1.741 1.74 1.74h1.587c.956.001 1.741-.784 1.74-1.74v-8.498a.74.74 0 0 1 .747-.746h2.87c.956-.001 1.74-.789 1.738-1.744V57.71c0-.953-.784-1.737-1.738-1.738zM86.946 56c2.326 0 4.015.682 5.204 2.035 1.198 1.363 1.812 3.216 1.812 5.645v.002c0 1.165-.131 2.236-.386 3.214-.254.95-.62 1.763-1.093 2.442a4.872 4.872 0 0 1-1.757 1.513c-.7.36-1.518.547-2.477.547-.965 0-1.972-.236-3.031-.723a.496.496 0 0 0-.704.451v5.411h-3.112V56.738c.667-.194 1.41-.376 2.343-.51v.003a23.017 23.017 0 0 1 3.201-.23zm35.586.033a18.196 18.196 0 0 1 2.2.16 14.58 14.58 0 0 1 1.407.201c.303.042.538.116.789.183l-.549 2.847c-.162-.033-.296-.07-.484-.102h-.004a16.677 16.677 0 0 0-1.103-.167l-.017-.002c-.39-.068-.77-.114-1.14-.138v-.002a15.393 15.393 0 0 0-.932-.033c-.592 0-1.171.034-1.742.101a10.01 10.01 0 0 0-1.791.316.496.496 0 0 0-.368.479V71.03h-3.148V57.242c.967-.34 1.945-.639 2.946-.855 1.114-.235 2.427-.354 3.936-.354zm-58.509.3h3.208c.178.723.365 1.465.576 2.268l.003.01c.268.938.545 1.876.836 2.814a100.284 100.284 0 0 0 .91 2.798c.337.897.675 1.739 1.012 2.526a.496.496 0 0 0 .932-.06 269.138 269.138 0 0 0 .704-2.512 126.094 126.094 0 0 0 .705-2.75c.223-.935.433-1.87.634-2.804l.002-.01c.19-.797.356-1.546.513-2.28h3.152c-.359 1.25-.713 2.493-1.055 3.71 0 .001 0 .003-.002.004a112.03 112.03 0 0 1-1.195 4.122 74.956 74.956 0 0 1-1.359 3.911l-.004.008a50.81 50.81 0 0 1-1.521 3.732 19.03 19.03 0 0 1-1.23 2.239l-.008.01c-.375.603-.794 1.08-1.254 1.44l-.018.015a4.229 4.229 0 0 1-1.502.84c-.536.178-1.195.274-1.978.274a9.63 9.63 0 0 1-1.806-.157h-.004c-.373-.074-.636-.181-.911-.283l.548-2.457c.233.083.482.196.692.238a5.16 5.16 0 0 0 1.246.148c.912 0 1.722-.33 2.303-.963a6.585 6.585 0 0 0 1.263-2.055.496.496 0 0 0-.017-.403c-.97-1.94-1.942-4.166-2.917-6.669v-.002c-.898-2.33-1.707-4.931-2.457-7.701ZM8.9 56.38c-.559 0-1.068.267-1.073.777-.092.16.15.587.25.742l3.684 5.623v.002a.869.869 0 0 1 0 .96l-3.684 5.613c-.414.63.066 1.52.82 1.522h2.598c.73 0 1.41-.372 1.805-.987l3.608-5.603v-.002c.401-.623.401-1.425 0-2.048L13.3 57.364v-.002a2.142 2.142 0 0 0-1.805-.982zm13.413.585h12.301a.74.74 0 0 1 .746.746v1.59a.739.739 0 0 1-.746.748h-2.87c-.954 0-1.738.784-1.739 1.738v8.498a.74.74 0 0 1-.748.748H27.67a.74.74 0 0 1-.748-.748v-8.498c0-.954-.785-1.737-1.738-1.738h-2.87a.74.74 0 0 1-.747-.748v-1.59a.74.74 0 0 1 .746-.746zm-13.397.407h2.58c.392 0 .758.2.97.53l3.609 5.612a.903.903 0 0 1 0 .979l-3.609 5.602v.002c-.212.331-.578.53-.97.53h-2.58l3.674-5.598v-.002a1.869 1.869 0 0 0 0-2.048v-.002zm95.089 1.008c-.589 0-1.127.098-1.603.31l-.01.004a3.362 3.362 0 0 0-1.134.862l-.013.016a4.618 4.618 0 0 0-.683 1.217 6.325 6.325 0 0 0-.29 1.34c-.031.293.199.548.494.548h6.275a.496.496 0 0 0 .496-.496c0-.464-.06-.91-.184-1.334 0 0-.002 0-.002-.002a3.527 3.527 0 0 0-.62-1.24 3.056 3.056 0 0 0-1.1-.868c-.467-.245-1.015-.357-1.627-.357zm-17.092.132c-.335 0-.69.024-1.063.071l.03-.003a30.41 30.41 0 0 0-.914.068.496.496 0 0 0-.452.494v8.612c0 .166.083.321.221.413.333.222.74.381 1.223.502.483.12.971.182 1.457.182 1.111 0 2.048-.5 2.594-1.409 0-.002.002-.004.003-.005.533-.913.77-2.12.77-3.62 0-1.467-.291-2.71-.907-3.698-.635-1.04-1.694-1.607-2.962-1.607zm17.092.86c.497 0 .882.09 1.17.243a2.03 2.03 0 0 1 .777.603c.204.258.35.55.444.893l.002.007c.052.177.053.377.078.566h-5.097c.04-.188.061-.382.122-.566a3.63 3.63 0 0 1 .517-.924c.22-.255.48-.452.793-.599.325-.144.717-.223 1.194-.223zm-17.092.132c1.002 0 1.636.347 2.115 1.132l.004.006c.493.79.757 1.837.757 3.174 0 1.392-.232 2.429-.633 3.118v.002c-.39.644-.896.923-1.74.923-.405 0-.81-.05-1.218-.151-.308-.077-.501-.179-.692-.277v-7.828c.146-.01.263-.02.436-.031a7.559 7.559 0 0 1 .971-.068z" fill="#ffffff"/></svg>
