<svg xmlns="http://www.w3.org/2000/svg" viewBox="0 0 128 128"><rect width="44.062" height="30.673" y="48.664" fill="#fff" ry="3.165" style="stroke-width:.999995"/><rect width="39.956" height="26.566" x="2.053" y="50.716" ry="2.741" style="stroke-width:.999995"/><path d="M46.115 50.76v3.432h5.484v17.393h4.172V54.192h5.483v-3.431zm58.135 4.612c-.942 0-1.861.178-2.758.537a6.825 6.825 0 0 0-2.39 1.615c-.695.696-1.256 1.571-1.682 2.625-.427 1.054-.64 2.276-.64 3.666 0 1.346.202 2.525.606 3.533.404 1.01.977 1.862 1.717 2.557.762.673 1.67 1.188 2.725 1.547 1.076.337 2.287.506 3.633.506 1.009 0 1.917-.09 2.724-.27a17.023 17.023 0 0 0 2.29-.605l-.573-3.533c-.516.179-1.155.357-1.918.537-.74.18-1.525.271-2.355.271-1.346 0-2.445-.291-3.297-.875-.852-.605-1.28-1.425-1.28-2.457h10.262c.022-.18.033-.415.033-.707.023-.291.034-.571.034-.84 0-2.646-.605-4.653-1.817-6.021-1.21-1.39-2.981-2.086-5.314-2.086zm-17.125.066c-1.077 0-2.176.08-3.297.237-1.099.156-2.029.358-2.791.605v20.856h4.136v-5.954c1.122.516 2.21.774 3.264.774 1.032 0 1.94-.202 2.725-.606a5.436 5.436 0 0 0 1.95-1.681c.517-.74.91-1.616 1.179-2.625.268-1.032.404-2.153.404-3.363v-.002c0-2.534-.65-4.54-1.951-6.02-1.3-1.48-3.175-2.22-5.62-2.22zm35.863.034c-1.547 0-2.904.122-4.07.369a25.152 25.152 0 0 0-3.366.976v14.77h4.172V59.845a9.602 9.602 0 0 1 1.717-.303c.56-.067 1.132-.1 1.715-.1.247 0 .55.012.908.034.359.022.728.067 1.11.134.38.045.752.1 1.11.168.382.068.706.136.975.203l.74-3.836a6.539 6.539 0 0 0-1.31-.304c-.471-.09-.943-.157-1.414-.201-.47-.068-.919-.113-1.346-.135a18.579 18.579 0 0 0-.941-.033zm-59.648.302c.807 3.072 1.706 5.886 2.693 8.444.987 2.534 1.972 4.79 2.959 6.763a6.13 6.13 0 0 1-1.178 1.916c-.493.539-1.144.809-1.951.809a4.7 4.7 0 0 1-1.145-.135 5.649 5.649 0 0 1-1.175-.404l-.774 3.465c.382.18.852.325 1.412.437a10.19 10.19 0 0 0 1.918.168c.83 0 1.547-.1 2.153-.303a4.773 4.773 0 0 0 1.681-.941c.517-.403.978-.931 1.381-1.582.426-.65.85-1.424 1.277-2.322a51.72 51.72 0 0 0 1.55-3.8 76.09 76.09 0 0 0 1.378-3.97c.426-1.368.83-2.758 1.211-4.172a719.48 719.48 0 0 1 1.244-4.373h-4.238c-.18.852-.381 1.75-.605 2.692-.202.942-.415 1.884-.64 2.826-.224.92-.46 1.838-.706 2.758-.247.897-.483 1.738-.707 2.523a59.124 59.124 0 0 1-1.01-2.523c-.314-.92-.617-1.851-.908-2.793-.292-.942-.57-1.883-.84-2.825-.247-.942-.472-1.828-.674-2.658zm-41.352.637a1.253 1.253 0 0 0-1.252 1.252v1.601a1.253 1.253 0 0 0 1.252 1.254h2.893a1.253 1.253 0 0 1 1.251 1.252v8.565a1.253 1.253 0 0 0 1.254 1.254h1.6a1.253 1.253 0 0 0 1.254-1.254V61.77a1.253 1.253 0 0 1 1.252-1.252h2.892a1.253 1.253 0 0 0 1.252-1.255v-1.6a1.253 1.253 0 0 0-1.252-1.252Zm-13.518.41a.49.49 0 0 0-.41.758h-.002l3.713 5.666a1.38 1.38 0 0 1 0 1.518l-3.713 5.656a.49.49 0 0 0 .408.76h2.62a1.66 1.66 0 0 0 1.398-.764l3.637-5.649a1.41 1.41 0 0 0 0-1.525l-3.637-5.658a1.66 1.66 0 0 0-1.398-.762zm95.846 2.016c.56 0 1.033.1 1.414.302.381.18.695.427.942.74.246.315.425.674.537 1.077.112.381.168.784.168 1.21h-6.325c.046-.426.135-.84.27-1.243.157-.404.359-.763.605-1.076.27-.315.596-.562.977-.74.404-.18.874-.27 1.412-.27zm-17.225.133c1.144 0 1.998.46 2.559 1.38.56.897.84 2.052.84 3.465 0 1.458-.236 2.59-.707 3.397-.471.784-1.199 1.177-2.186 1.177-.448 0-.899-.055-1.347-.167-.449-.112-.808-.259-1.077-.438v-8.68c.247-.022.55-.044.909-.066.359-.045.696-.068 1.01-.068z" fill="#ffffff"/></svg>
