<svg xmlns="http://www.w3.org/2000/svg" viewBox="0 0 128 128"><path fill="#ff8434" d="M73.8 0c-3.32 0-6.01 2.688-6.01 6v48.078c0 3.313 2.69 6 6.01 6h48.173c3.32 0 6.011-2.687 6.011-6V6c0-3.312-2.691-6-6.011-6zM46.589 9.83c-1.871 0-3.742.711-5.17 2.135L4.066 49.25c-5.402 5.395-5.402 14.14 0 19.535l55.286 55.168c5.406 5.395 14.168 5.395 19.574 0l37.351-37.277a7.283 7.283 0 0 0 0-10.317l-.285-.28a7.3 7.3 0 0 0-5.172-2.138H64.18a10.28 10.28 0 0 1-7.27-3.004 10.24 10.24 0 0 1-3.012-7.253V17.125a7.27 7.27 0 0 0-2.14-5.16 7.3 7.3 0 0 0-5.17-2.135"/></svg>
