<svg xmlns="http://www.w3.org/2000/svg" viewBox="0 0 128 128"><path d="M111.09 0c-7.92 0-16.27 7.278-16.697 7.492l-.213.213-.985 1.969a26.99 26.99 0 0 0-2.013-1.54l-.426-.429H43.234l-.425.213c-2.698 1.484-5.054 3.139-7.125 5.016L33.82 9.205l-.216-.217c-.429-.214-8.988-7.492-16.694-7.492-3.639 0-6.638 1.288-8.992 3.643-2.997 2.996-4.495 7.702-4.281 13.267A67.042 67.042 0 0 0 5.352 30.61c.856 3.853 1.497 7.064 1.283 9.846 0 1.712-.854 3.637-1.496 5.777-1.713 4.923-3.854 11.13 1.283 16.053 3.853 3.639 7.063 5.565 10.488 6.635 1.498.428 2.996.644 4.494.644 2.569 0 5.352-.643 8.563-1.927a132.916 132.916 0 0 0 4.388-1.9c-.544.242-1.11.501-1.636.73.616 2.89.664 5.996.459 8.662-.428 6.421-2.14 11.984-2.14 11.984l-1.929 6.422 4.924-4.281c.301-.452 7.16-6.628 11.43-14.197 1.063 3.457 2.544 7.898 4.625 12.7a92.217 92.217 0 0 0 11.127 19.692c5.35 7.278 11.561 13.272 18.625 17.98L83.69 128l-3.424-14.344 12.199 1.715-2.992-3.642c0-.215-4.71-5.993-7.493-14.983a44.787 44.787 0 0 1-1.5-15.836c.266-2.651.838-5.3 1.672-7.922 4.042 8.457 11.965 15.727 12.453 16.053l4.926 4.494-1.927-6.635s-1.713-5.563-2.141-11.984c-.229-2.97-.205-6.424.607-9.555.572.253 1.216.552 1.746.78 2.997 1.284 5.994 1.927 8.563 1.927 1.498 0 2.998-.216 4.71-.644 3.426-1.07 6.636-2.996 10.49-6.635 5.136-4.923 2.995-11.13 1.282-16.053-.642-2.14-1.5-4.069-1.5-5.78-.214-2.998.431-6.208 1.287-9.847.643-3.424 1.497-7.704 1.711-12.199.214-5.565-1.284-10.277-4.28-13.273C117.723 1.282 114.514 0 111.088 0zm0 3.424c2.354 0 4.495.858 6.207 2.57 2.354 2.355 3.425 6.208 3.21 10.703-.213 4.281-.856 8.133-1.712 11.772-.642 3.853-1.497 7.278-1.283 10.703.214 2.14.853 4.28 1.709 6.635.856 2.354 1.715 4.707 1.715 6.847 0 2.14-.643 3.854-2.141 5.352-5.78 5.565-10.917 8.136-19.479 4.71-2.738-1.127-6.08-2.667-9.416-4.241 4.37-6.376 7.432-12.428 9.416-18.02a47.502 47.502 0 0 0 1.202-4.068h2.867c0 2.568 2.138 4.71 4.707 5.138h2.14c2.569 0 4.707-2.142 4.707-4.71V26.11c0-2.568-2.138-4.707-4.707-4.707h-2.14c-2.569 0-4.707 1.926-4.707 4.494h-1.867c-.061-.793-.145-1.58-.274-2.353-.721-4.183-2.537-7.962-5.332-11.17l1.266-2.53c.642-.641 2.353-1.926 4.494-3.21 3.639-2.14 6.85-3.211 9.418-3.211zM16.697 5.139c2.569 0 5.992 1.068 9.631 3.209 2.14 1.284 3.852 2.783 4.494 3.21l2.092 4.227c-.199.23-.401.459-.594.695-2.513 3.052-4.26 6.41-5.142 10.063h-2.563c0-2.355-2.138-4.494-4.707-4.494h-2.14c-2.569 0-4.711 2.138-4.711 4.707v10.701c0 2.569 2.142 4.707 4.71 4.707h2.141c2.569 0 4.707-2.137 4.707-4.92v-.213h2.121c.42 2.941 1.278 5.936 2.586 8.989 1.982 4.572 4.959 9.256 8.817 14.046-3.42 1.617-6.861 3.203-9.67 4.36-6.422 2.568-11.775 2.57-19.48-4.707-1.499-1.499-2.141-3.211-2.141-5.352 0-2.14.858-4.497 1.715-6.851.856-2.355 1.498-4.495 1.712-6.635.214-3.21-.43-6.849-1.287-10.701-.856-3.64-1.495-7.493-1.709-11.774-.214-4.495 1.069-8.346 3.21-10.7 1.498-1.713 3.64-2.567 6.208-2.567zm76.547 4.58c.49.415.957.847 1.4 1.293-.449-.442-.909-.878-1.4-1.293zM34.29 14.283l-.111.115.111-.115zm9.59.912 4.281 10.916 3.424-8.988 3.424 9.205 4.281-11.133 4.281 11.133 4.067-10.918 4.068 10.918 3.854-10.062 3.851 10.062 4.067-10.918 4.068 10.918 4.281-10.918 4.281 10.918.961-2.644c.033.17.081.333.11.505.371 1.95.447 4.03.271 6.204h-3.27v-2.141c0-.642-.64-1.283-1.283-1.283-.642 0-1.283.64-1.283 1.283v2.14h-8.35v-2.14c0-.642-.64-1.283-1.283-1.283-.642 0-1.287.64-1.287 1.283v2.14h-8.13v-2.14c0-.642-.642-1.283-1.284-1.283s-1.289.64-1.289 1.283v2.14H58.006v-2.14c0-.642-.643-1.283-1.285-1.283-.642 0-1.283.64-1.283 1.283v2.14H47.09v-2.14c0-.642-.641-1.283-1.283-1.283-.642 0-1.284.64-1.284 1.283v2.14h-8.136v-2.14c0-.642-.641-1.283-1.283-1.283-.643 0-1.284.64-1.284 1.283v2.14h-3.515c.029-.284.05-.572.088-.853.215-1.292.537-2.533.953-3.736l.117.308 1.53-3.941a23.746 23.746 0 0 1 2.11-3.12c.377-.526.796-1.027 1.235-1.517l3.26 8.578 4.28-10.916zm64.213 8.137h2.14a2.374 2.374 0 0 1 2.354 2.354v10.7a2.374 2.374 0 0 1-2.354 2.354h-2.14a2.374 2.374 0 0 1-2.354-2.353V34.89c0-.643-.428-1.07-1.07-1.07h-3.592c.37-2.069.54-4.062.524-5.995h3.068c.642 0 1.07-.428 1.07-1.07v-1.07a2.374 2.374 0 0 1 2.354-2.354zm-90.324 1.07v.213h2.14a2.374 2.374 0 0 1 2.354 2.354v1.07c0 .642.428 1.07 1.07 1.07h3.375a27.986 27.986 0 0 0-.186 5.995h-3.189c-.642 0-1.07.428-1.07 1.07v1.283a2.374 2.374 0 0 1-2.354 2.354h-2.14c-1.285 0-2.358-1.07-2.358-2.354V26.756c0-1.284 1.073-2.354 2.358-2.354zm12.42 7.705h3.632v2.14c0 .641.641 1.284 1.284 1.284.642 0 1.283-.643 1.283-1.285v-2.139h8.136v2.14c0 .641.642 1.284 1.284 1.284s1.283-.643 1.283-1.285v-2.139h8.347v2.14c0 .641.428 1.284 1.284 1.284.642 0 1.285-.643 1.285-1.285v-2.139H69.99v2.14c0 .641.433 1.284 1.29 1.284.641 0 1.282-.643 1.282-1.285v-2.139h8.131v2.14c0 .641.645 1.284 1.287 1.284.643 0 1.284-.643 1.284-1.285v-2.139h8.35v2.14c0 .641.426 1.284 1.282 1.284.643 0 1.284-.643 1.284-1.285v-2.139h3.076c-.326 2.327-.92 4.755-1.793 7.278-2.14 6.207-5.99 13.055-11.342 20.547-4.28 6.635-6.85 13.485-7.492 20.548-.642 5.566-.002 11.344 1.71 17.124 1.713 5.565 4.07 9.846 5.782 12.628l-8.35-1.283 2.356 10.703c-5.137-4.067-9.847-8.778-13.914-14.343-4.067-5.566-7.705-11.985-10.701-18.834-4.495-10.703-6.207-19.478-6.635-21.405v-.213L46.232 64C40.025 57.365 35.32 50.944 32.75 44.736c-1.934-4.395-2.701-8.64-2.563-12.629zm35.521 9.631.219 1.07c.214 2.57 1.497 4.71 3.424 6.422 1.926 1.713 4.279 2.567 6.847 2.567 2.569 0 4.925-.854 6.852-2.567 1.926-1.712 2.996-4.067 3.424-6.421l.213-1.07H65.709zm-23.113.213.213 1.07c.214 2.569 1.497 4.71 3.423 6.422 1.927 1.713 4.283 2.57 6.852 2.57 2.354 0 4.921-.857 6.848-2.57 1.926-1.712 2.995-4.067 3.423-6.422l.215-1.07H42.596zM68.28 43.88h5.73a2.354 2.354 0 0 0-.165.857 2.354 2.354 0 0 0 2.353 2.354 2.354 2.354 0 0 0 2.354-2.354 2.354 2.354 0 0 0-.158-.857h6.152c-.428 1.498-1.282 2.785-2.567 3.855-1.498 1.499-3.641 2.139-5.568 2.139-2.14 0-4.066-.854-5.564-2.139-1.285-1.07-2.139-2.357-2.567-3.855zm-23.332.213h5.828a2.354 2.354 0 0 0-.263 1.07 2.354 2.354 0 0 0 2.353 2.354 2.354 2.354 0 0 0 2.358-2.354 2.354 2.354 0 0 0-.258-1.07h6.248c-.428 1.498-1.282 2.785-2.567 3.855-1.498 1.499-3.424 2.14-5.564 2.14s-4.07-.855-5.568-2.14c-1.285-1.07-2.139-2.357-2.567-3.855zm42.778 17.435a566.51 566.51 0 0 0 4.85 2.266c-1.846 5.915-1.158 12.976-.325 17.97-.642-.641-1.499-1.71-2.14-2.566-3.1-3.873-5.172-7.626-6.17-10.869v-.002a48.058 48.058 0 0 1 3.39-6.254c.137-.183.26-.362.395-.545zm-47.221 1.37a110.413 110.413 0 0 0 2.728 3.03c0 .429.005.856.22 1.284.137.553.288 1.489.542 2.64-1.122 2.884-3.03 6.032-5.682 9.346-.642.856-1.498 1.71-2.14 2.567.78-4.68 1.435-11.173 0-16.838-.268.122-.51.227-.774.345a378.467 378.467 0 0 0 5.106-2.375zm43.428 5.449a42.621 42.621 0 0 0 0 0zm-39.746 2.326zm21.406 1.701a14.746 14.746 0 0 0-2.451.19c-5.352.856-9.203 4.492-8.561 8.13 0 .428-.002.643.426 1.07.214-3.21 3.853-5.99 8.562-6.847 4.71-.856 8.991.857 10.276 3.854v-1.288c-.542-3.07-3.977-5.072-8.252-5.109zm.777 7.522c-.56 0-1.144.05-1.732.158-4.71.642-7.919 4.495-6.42 7.492.214-2.569 3-4.922 6.638-5.565 3.853-.428 7.061.857 8.131 3.211.375-2.809-2.69-5.294-6.617-5.296zm2.178 8.168a8.11 8.11 0 0 0-1.338.12c-3.639.643-5.996 3.43-4.926 5.784.214-1.927 2.356-3.853 5.139-4.281 2.782-.429 5.353.64 6.209 2.353.374-2.247-2.038-4.003-5.084-3.977z" style="fill:#390075"/></svg>
