<svg xmlns="http://www.w3.org/2000/svg" viewBox="0 0 128 128"><path d="M110.057 87.615c-.435 0-.812.14-1.127.418-.315.278-.472.66-.472 1.145h.002v9.715c0 .484.158.866.472 1.144.315.28.703.418 1.125.418.423 0 .794-.139 1.108-.418.314-.278.472-.66.472-1.144v-2.58l2.995-2.707v5.287c0 .484.16.866.474 1.144.315.28.69.418 1.125.418.435 0 .81-.139 1.125-.418.317-.278.474-.66.474-1.144v-9.735c0-.484-.154-.862-.464-1.135a1.63 1.63 0 0 0-1.117-.408c-.437 0-.814.14-1.135.418-.32.278-.482.66-.482 1.145v3.976h-2.995v-3.996c0-.484-.154-.862-.462-1.135a1.633 1.633 0 0 0-1.118-.408zm-8.933.018c-.486 0-.933.122-1.344.363-.412.243-.738.57-.98.98a2.6 2.6 0 0 0-.364 1.344v8.446c0 .447.159.828.473 1.142a1.53 1.53 0 0 0 1.125.473c.436 0 .8-.158 1.098-.473.296-.314.445-.695.445-1.142v-1.528h1.963c.738 0 1.36-.255 1.869-.763l1.58-1.506c.29-.278.519-.66.682-1.145.164-.484.244-.987.244-1.508a3.97 3.97 0 0 0-.19-1.252 2.26 2.26 0 0 0-.574-.945l-1.742-1.742a2.652 2.652 0 0 0-1.87-.744zm20.085 0c-.486 0-.933.122-1.344.363-.412.243-.738.57-.98.98a2.6 2.6 0 0 0-.364 1.344v8.446c0 .447.159.828.473 1.142a1.53 1.53 0 0 0 1.125.473c.436 0 .8-.158 1.098-.473.296-.314.445-.695.445-1.142v-1.528h1.96c.739 0 1.364-.255 1.872-.763l1.58-1.506c.29-.278.519-.66.682-1.145.164-.484.244-.987.244-1.508a3.97 3.97 0 0 0-.19-1.252 2.26 2.26 0 0 0-.574-.945l-1.742-1.742a2.657 2.657 0 0 0-1.871-.744zm-19.595 3.14 3.014.038v3.25h-3.014zm20.085 0 3.014.038v3.25h-3.014z" style="fill:#390075;stroke-width:.300353"/><path d="M23.587 87.5v.002c-.375 0-.788.188-1.272.562l-2.322 1.942c-.376.327-.653.628-.834.906-.181.28-.29.625-.326 1.037v.135l1.185-.002v-.488c0-.185.147-.336.326-.336a.33.33 0 0 1 .329.334v.492l1.109-.002v-.492c0-.185.147-.338.326-.338a.33.33 0 0 1 .326.336v.492h.932v-.496a.33.33 0 0 1 .326-.336.33.33 0 0 1 .326.336v.492h.957v-.496a.33.33 0 0 1 .325-.336.33.33 0 0 1 .328.334v.492l1.078-.002v-.492a.33.33 0 0 1 .326-.336c.18 0 .326.151.326.336v.49h.967v-.119c-.024-.423-.126-.773-.3-1.052-.176-.278-.453-.575-.827-.89l-2.377-1.94c-.447-.375-.86-.565-1.234-.565zm17.157.08c-.447 0-.826.155-1.135.463a1.5 1.5 0 0 0-.463 1.098v9.673c0 .448.155.825.463 1.133.309.31.688.463 1.135.463.447 0 .826-.154 1.135-.463a1.54 1.54 0 0 0 .463-1.133v-3.503l3.101.037v3.466c0 .435.161.81.483 1.124a1.56 1.56 0 0 0 1.132.472 1.57 1.57 0 0 0 1.135-.472c.321-.315.483-.687.483-1.124v-2.197c0-1.223-.54-2.088-1.618-2.595.557-.35.954-.748 1.19-1.19.235-.44.353-.963.353-1.568v-2.123a1.5 1.5 0 0 0-.463-1.098 1.5 1.5 0 0 0-1.097-.463 1.56 1.56 0 0 0-1.115.463 1.472 1.472 0 0 0-.483 1.098v2.068l-3.101 3.83v-5.898a1.49 1.49 0 0 0-.463-1.106 1.56 1.56 0 0 0-1.135-.455zm-10.038.018c-.424 0-.792.154-1.106.463a1.526 1.526 0 0 0-.472 1.134v9.62c0 .436.154.806.463 1.115a1.5 1.5 0 0 0 1.115.463 1.59 1.59 0 0 0 1.142-.455 1.49 1.49 0 0 0 .474-1.124v-8.003h2.924v7.968c0 .448.15.83.453 1.143.3.314.695.47 1.143.47a1.5 1.5 0 0 0 1.125-.47 1.59 1.59 0 0 0 .455-1.143v-8.168c0-.908-.296-1.63-.89-2.17-.592-.538-1.344-.806-2.251-.806-.703 0-1.303.18-1.805.543-.502.363-.862.896-1.08 1.597 0 .026-.012.038-.037.038-.025 0-.037-.032-.037-.092v-.526a1.53 1.53 0 0 0-.474-1.134 1.57 1.57 0 0 0-1.142-.463zm29.402 0c-.423 0-.791.154-1.105.463a1.526 1.526 0 0 0-.473 1.134v9.62c0 .436.154.806.463 1.115a1.5 1.5 0 0 0 1.115.463c.447 0 .829-.153 1.143-.455a1.49 1.49 0 0 0 .472-1.124v-8.003h2.922v7.968c0 .448.152.83.455 1.143.302.314.696.47 1.143.47a1.5 1.5 0 0 0 1.125-.47c.303-.314.455-.695.455-1.143v-8.168c0-.908-.297-1.63-.89-2.17-.594-.538-1.343-.806-2.25-.806-.703 0-1.305.18-1.807.543-.502.363-.863.896-1.08 1.597 0 .026-.01.038-.036.038-.025 0-.037-.032-.037-.092v-.526a1.53 1.53 0 0 0-.472-1.134 1.57 1.57 0 0 0-1.143-.463zm-8.095.052c-.47 0-.909.123-1.314.364-.405.242-.728.57-.97.98a2.595 2.595 0 0 0-.364 1.342v.853c0 .702.11 1.274.334 1.715.224.442.638.765 1.244.971-.64.217-1.063.56-1.27 1.025-.206.467-.308 1.068-.308 1.805v.98c0 .486.12.933.363 1.344.241.413.566.738.97.98a2.51 2.51 0 0 0 1.315.364h4.374a1.675 1.675 0 0 0 1.118-.49c.308-.303.463-.667.463-1.09a1.54 1.54 0 0 0-.463-1.133 1.523 1.523 0 0 0-1.118-.463h-3.848v-1.524h3.54c.422 0 .793-.157 1.107-.47a1.51 1.51 0 0 0 .473-1.106c0-.448-.154-.827-.463-1.135a1.523 1.523 0 0 0-1.117-.463h-3.54v-1.672h3.848c.423 0 .794-.16 1.108-.48.315-.32.473-.712.473-1.135a1.5 1.5 0 0 0-.463-1.098 1.523 1.523 0 0 0-1.118-.463h-4.374zm-49.345.002c-.484 0-.93.12-1.334.362-.406.242-.73.57-.971.98-.243.412-.363.86-.363 1.344v8.55c0 .483.158.864.472 1.141.314.28.703.418 1.125.418.422 0 .792-.139 1.106-.418.315-.277.472-.658.472-1.142V96.11H5.99c.447 0 .828-.159 1.142-.48.315-.32.471-.68.471-1.115 0-.436-.156-.809-.47-1.117a1.53 1.53 0 0 0-1.108-.463H3.176v-2.106h3.54c.423 0 .794-.16 1.115-.482.32-.32.482-.71.482-1.133 0-.424-.154-.79-.463-1.1a1.542 1.542 0 0 0-1.134-.46H2.668Zm7.675 0c-.447 0-.826.155-1.134.463a1.544 1.544 0 0 0-.463 1.135v9.564c0 .437.154.81.463 1.118.308.308.7.463 1.134.463a1.49 1.49 0 0 0 1.107-.463c.303-.309.455-.68.455-1.118V94.15l3.103 3.776v.888c0 .424.15.794.454 1.108.3.314.684.47 1.107.47.424 0 .787-.154 1.09-.462.303-.309.453-.68.453-1.116v-.925c0-.593-.118-1.107-.354-1.543-.236-.435-.625-.823-1.17-1.162 1.063-.533 1.596-1.398 1.596-2.594v-.707c0-.738-.285-1.392-.853-1.96l-1.541-1.489c-.557-.52-1.193-.782-1.907-.782zm1.564 3.176h3.1v3.05h-3.1zm15.457 1.893-.004.002v.49a.33.33 0 0 1-.324.336.33.33 0 0 1-.328-.334v-.492l-1.078.004v.49a.333.333 0 0 1-.327.338.33.33 0 0 1-.326-.336v-.49h-.957v.492a.33.33 0 0 1-.324.336.33.33 0 0 1-.328-.334v-.493h-.93v.493a.333.333 0 0 1-.326.338.333.333 0 0 1-.328-.336v-.49l-1.11.001v.49a.33.33 0 0 1-.324.337.33.33 0 0 1-.328-.334v-.493l-1.187.004v6.09c0 .436.157.804.472 1.106.314.302.69.455 1.125.455.435 0 .807-.153 1.116-.455a1.49 1.49 0 0 0 .462-1.106v-4.465l3.16 2.922v1.543c0 .436.153.804.462 1.106a1.56 1.56 0 0 0 1.134.455c.448 0 .805-.153 1.108-.455.303-.303.455-.67.455-1.106v-6.11h-.965z" style="fill:#b3d133;stroke-width:2.14049"/><path d="M50.452 58.84c7.9 5.964 2.582 23.055 2.582 23.055s16.282-14.512 8.703-23.056zm41.437 0c-7.74 8.543 8.543 23.055 8.543 23.055s-5.318-17.09 2.742-23.056z" style="fill:#fff;stroke-width:1.61222"/><path d="M60.931 58.84c2.58 5.964-3.547 13.865-7.255 18.058-.483 2.901-1.127 4.997-1.127 4.997s16.285-14.673 8.707-23.056zm31.28 0c-7.579 8.382 8.706 23.055 8.706 23.055s-.644-2.096-1.128-4.997c-3.708-4.193-9.835-12.094-7.255-18.059Z" style="opacity:.19;stroke-width:1.61222"/><path d="M92.37 57.39c-.644 0-.964-.002-1.448.483-1.774 1.934-2.58 4.193-2.418 6.772.483 8.545 10.638 17.894 11.122 18.216l3.709 3.386-1.452-4.998s-1.29-4.19-1.612-9.028c-.322-4.191.001-9.67 3.71-12.413l3.385-2.417zm-46.11.161 3.386 2.418c3.547 2.58 4.032 8.221 3.71 12.413-.323 4.837-1.613 9.027-1.613 9.027l-1.452 4.838 3.71-3.225c.322-.483 10.642-9.671 11.125-18.216 0-2.579-.645-4.839-2.418-6.773-.323-.483-.807-.482-1.452-.482zm7.416 2.74h7.42c.967 1.29 1.448 2.743 1.288 4.354-.162 3.064-1.934 6.77-5.158 10.801-.484.644-1.13 1.288-1.612 1.933.806-4.836 1.448-12.251-1.938-17.089zm38.694 0h7.42c-3.386 4.837-2.743 12.252-1.936 17.088-.485-.483-1.13-1.288-1.613-1.933-3.225-4.03-4.997-7.898-5.158-10.8 0-1.612.32-3.066 1.288-4.356z" style="fill:#390075;stroke-width:1.61222"/><path d="M111.881 17.247c-5.32 0-11.61 5.318-11.61 5.318l-16.604 32.89s11.93 5.965 18.862 8.866c6.933 2.902 11.286.808 16.123-3.706 4.836-4.514-.163-10.802-.485-15.315-.323-4.515 1.936-9.997 2.257-16.768.323-6.771-3.222-11.285-8.543-11.285zm-70.778.967c-5.32 0-8.868 4.674-8.707 11.445.161 6.772 2.58 12.092 2.418 16.767-.322 4.515-5.321 10.802-.485 15.317 4.837 4.514 9.19 6.61 16.123 3.708 6.932-2.902 18.865-8.866 18.865-8.866L52.71 23.535s-6.287-5.321-11.607-5.321z" style="fill:#b3d133;stroke-width:1.61222"/><path d="M118.658 21.97c-.85-.024-1.71.738-2.264 3.177-1.612 7.255 1.29 30.47-2.258 32.565-7.577 4.514-11.93-12.574-17.895-2.579-.968 1.773-1.29 3.548-1.773 5.482 3.063 1.934 8.706 3.546 11.446 4.997 5.643 2.902 9.353.806 13.222-3.87 3.87-4.836-.324-11.125-.484-15.8-.161-4.676 1.771-10.317 1.933-17.249 0-2.419-.162-4.515-.806-6.288-.353-.252-.735-.425-1.121-.435zm-84.332 1.054c-.386.014-.77.208-1.124.511-.645 1.773-.806 3.866-.806 6.285.161 6.932 2.095 12.577 1.933 17.252-.16 4.676-4.351 10.961-.482 15.797 3.87 4.837 7.577 6.772 13.22 3.87 2.74-1.45 8.383-3.062 11.447-4.996-.485-1.935-.806-3.71-1.774-5.483-5.965-9.995-10.317 7.093-17.895 2.58-3.548-2.096-.645-25.31-2.258-32.566-.554-2.438-1.41-3.277-2.26-3.249z" style="fill-opacity:.19;stroke-width:1.61222"/><path d="M111.075 16.923c-4.514 0-8.225 3.226-8.225 7.418 0 .645.163 1.288.324 1.933.806-3.224 4.032-5.643 7.902-5.643 3.868 0 7.09 2.419 7.897 5.643.16-.644.324-1.287.324-1.933 0-4.03-3.708-7.419-8.222-7.419zm-69.166 1.13c-4.515 0-8.222 3.223-8.222 7.416 0 .644.16 1.288.322 1.932.806-3.223 4.03-5.642 7.9-5.642s7.094 2.418 7.9 5.642c.162-.644.322-1.288.322-1.932 0-4.193-3.708-7.416-8.222-7.416z" style="fill:#fff;fill-opacity:.6;stroke-width:1.61222"/><path d="M112.042 15.795c-5.965 0-12.255 5.481-12.577 5.643l-.16.16L82.054 56.1l1.127.645c.161 0 12.091 5.966 18.862 8.867 2.257.968 4.515 1.452 6.449 1.452 1.13 0 2.26-.163 3.55-.485 2.578-.806 4.998-2.257 7.9-4.998 3.87-3.708 2.256-8.383.966-12.09-.483-1.612-1.13-3.066-1.13-4.356-.161-2.256.324-4.674.97-7.415.483-2.58 1.127-5.803 1.288-9.188.161-4.192-.968-7.74-3.225-9.997-1.774-1.773-4.19-2.74-6.77-2.74zm-70.94 1.128c-2.74 0-5 .968-6.773 2.741-2.257 2.258-3.385 5.804-3.223 9.995a50.5 50.498 0 0 0 1.29 9.192c.644 2.902 1.127 5.32.966 7.415 0 1.29-.644 2.74-1.127 4.352-1.29 3.708-2.903 8.383.966 12.091 2.902 2.74 5.322 4.19 7.902 4.997a12.27 12.27 0 0 0 3.384.485c1.935 0 4.031-.485 6.449-1.452 6.772-2.74 18.701-8.866 18.863-8.866l1.29-.646L53.84 22.73l-.163-.164c-.323-.161-6.77-5.642-12.574-5.642Zm70.94 1.451c1.773 0 3.386.647 4.676 1.936 1.773 1.774 2.58 4.676 2.418 8.061-.161 3.225-.645 6.127-1.29 8.868-.484 2.901-1.128 5.48-.967 8.06.161 1.612.643 3.224 1.288 4.997.645 1.774 1.29 3.546 1.29 5.158 0 1.612-.483 2.902-1.611 4.03-4.354 4.192-8.222 6.129-14.672 3.55-5.48-2.258-14.188-6.613-17.413-8.225l15.801-31.599c.484-.483 1.773-1.45 3.386-2.417 2.74-1.612 5.16-2.419 7.094-2.419zm-71.1 1.291c1.935 0 4.514.806 7.255 2.418 1.612.968 2.902 2.096 3.385 2.418L67.22 56.1c-3.223 1.612-11.928 5.964-17.41 8.22-4.836 1.936-8.87 1.937-14.674-3.544-1.128-1.129-1.612-2.418-1.612-4.03 0-1.613.647-3.388 1.292-5.162.644-1.773 1.13-3.385 1.29-4.996.162-2.419-.325-5.16-.97-8.062-.644-2.74-1.126-5.642-1.288-8.867-.16-3.385.806-6.287 2.419-8.06 1.128-1.29 2.742-1.934 4.676-1.934z" style="fill:#390075;stroke-width:1.61222"/><path d="M89.309 109.14C66.737 94.147 62.223 64.805 62.223 64.805c-19.51-20.474-13.544-34.984-.968-41.916h34.987c8.867 6.126 11.447 18.701-3.225 38.692-13.543 20.797 1.773 39.015 1.773 39.015l-7.577-1.13z" style="fill:#b3d133;stroke-width:1.61222"/><path d="M69.316 22.889c-16.122 5.32-22.087 15.477.162 38.692 0 0-1.935 25.795 16.284 37.886.806.806 1.934 6.933 1.934 6.933-26.28-14.187-24.183-42.078-24.183-42.078-24.669-25.795-13.06-38.208 5.803-41.434Z" style="fill-opacity:.19;stroke-width:1.61222"/><path d="M109.624 32.562a2.546 2.546 0 0 0-2.58 2.58v.805h-3.87v6.29h3.87v.965a2.546 2.546 0 0 0 2.58 2.579h1.612a2.545 2.545 0 0 0 2.579-2.58v-8.06a2.546 2.546 0 0 0-2.58-2.579zm-67.876.806a2.549 2.549 0 0 0-2.582 2.58v8.06a2.549 2.549 0 0 0 2.582 2.58h1.612a2.546 2.546 0 0 0 2.58-2.58v-.967h3.87v-6.287h-3.87v-.806a2.546 2.546 0 0 0-2.58-2.58z" style="fill:#c3b2d3;stroke-width:1.61222"/><path d="M109.784 32.723c-1.128 0-1.934.485-2.418 1.452.323-.161.805-.324 1.127-.324h1.612a2.55 2.55 0 0 1 2.583 2.581v8.062c0 .322-.002.803-.164 1.288.806-.485 1.452-1.29 1.452-2.419v-8.061a2.545 2.545 0 0 0-2.58-2.579zm-68.2.806a2.546 2.546 0 0 0-2.578 2.58v8.06c0 1.128.645 1.933 1.451 2.417 0-.484-.16-.804-.16-1.288v-8.06a2.549 2.549 0 0 1 2.579-2.582h1.612c.322 0 .805.164 1.127.325-.483-.967-1.29-1.452-2.418-1.452zm61.59 2.418v1.292h2.58v-.806c0-.162.16-.324 0-.485zm-55.947.806v1.292h2.583v-1.291z" style="opacity:.7;fill:#fff;stroke-width:1.61222"/><path d="M103.174 35.948v6.288h3.87v.966a2.546 2.546 0 0 0 2.58 2.579h1.612c1.29 0 2.417-.804 2.579-2.094-.323.161-.484.16-.806.16h-1.612a2.545 2.545 0 0 1-2.58-2.578c0-.484-.482-.97-.967-.97a2.89 2.89 0 0 1-2.902-2.9v-1.451zm-55.14.806v1.451c0 1.612-1.288 2.9-2.9 2.9-.484 0-.967.487-.967.97a2.549 2.549 0 0 1-2.582 2.58h-1.612c-.323 0-.485 0-.806-.161.16 1.29 1.292 2.094 2.581 2.094h1.612a2.546 2.546 0 0 0 2.58-2.58v-.967h3.87v-6.287z" style="opacity:.3;fill:#390075;stroke-width:1.61222"/><path d="M109.784 31.917c-1.934 0-3.545 1.45-3.545 3.385h-3.065c-.483 0-.806.323-.806.805v6.29c0 .483.323.806.806.806h3.065c0 1.934 1.61 3.547 3.545 3.869h1.612c1.936 0 3.546-1.614 3.546-3.548v-8.061c0-1.935-1.611-3.546-3.545-3.546zm-68.036.485c-1.934 0-3.548 1.61-3.548 3.546v8.06c0 1.935 1.614 3.546 3.548 3.546h1.612c1.936 0 3.546-1.61 3.546-3.706v-.161h3.064c.484 0 .806-.322.806-.806v-6.288c0-.484-.322-.806-.806-.806h-3.064c0-1.773-1.611-3.385-3.545-3.385zm68.036.967h1.612a1.788 1.788 0 0 1 1.773 1.772v8.06a1.788 1.788 0 0 1-1.772 1.774h-1.612a1.788 1.788 0 0 1-1.773-1.773v-1.127c0-.483-.323-.806-.806-.806h-3.065v-4.515h3.063c.484 0 .806-.323.806-.806v-.806a1.788 1.788 0 0 1 1.773-1.773zm-68.036.806v.16h1.612a1.788 1.788 0 0 1 1.773 1.773v.806c0 .484.323.806.806.806h3.065v4.516h-3.063c-.484 0-.806.322-.806.805v.968a1.788 1.788 0 0 1-1.774 1.772H41.75a1.79 1.79 0 0 1-1.777-1.772v-8.061a1.79 1.79 0 0 1 1.776-1.773z" style="fill:#390075;stroke-width:1.61222"/><path d="M78.83 48.039c.484 3.386 3.383 5.964 7.092 5.964 3.547 0 6.45-2.578 7.094-5.964zm-17.574.16c.484 3.386 3.387 5.967 7.095 5.967 3.547 0 6.446-2.581 7.09-5.967z" style="fill:#fff;stroke-width:1.61222"/><path d="m60.931 21.599-.32.16c-3.225 1.773-5.806 3.87-7.902 6.449-2.257 2.74-3.707 5.806-4.19 9.191-.646 4.192-.002 8.544 1.933 13.058 2.096 4.837 5.643 9.836 10.48 14.994 0 .323.002.645.164.968.16.644.322 1.933.806 3.545.806 2.74 2.095 7.094 4.19 11.93a69.458 69.455 0 0 0 8.383 14.831c4.03 5.482 8.708 9.996 14.029 13.543l2.9 1.937-2.579-10.803 9.188 1.29-2.254-2.743c0-.16-3.547-4.513-5.643-11.285a33.736 33.734 0 0 1-1.13-11.927c.483-4.837 2.259-9.674 5.16-14.188 4.354-5.805 7.255-11.285 9.028-16.283 1.612-4.675 2.097-8.868 1.453-12.737-.806-4.675-3.388-8.704-7.58-11.607l-.321-.323zm.486 5.642 3.223 8.222 2.58-6.77 2.58 6.933 3.223-8.385 3.225 8.386 3.065-8.225 3.064 8.225 2.903-7.579 2.9 7.579 3.064-8.225 3.064 8.225 3.224-8.225 3.225 8.225.724-1.993c.025.128.06.252.082.381.28 1.469.337 3.036.205 4.673h-2.463v-1.612c0-.484-.482-.967-.966-.967s-.967.483-.967.966v1.612h-6.289v-1.612c0-.483-.482-.966-.966-.966s-.97.483-.97.966v1.612h-6.125v-1.612c0-.483-.483-.966-.967-.966-.483 0-.97.483-.97.966v1.612h-9.028v-1.612c0-.483-.483-.966-.967-.966-.483 0-.967.483-.967.966v1.612h-6.288v-1.612c0-.483-.483-.966-.967-.966s-.966.483-.966.966v1.612h-6.129v-1.612c0-.483-.482-.966-.966-.966s-.966.483-.966.966v1.612h-2.649c.022-.214.038-.43.066-.642a17.287 17.286 0 0 1 .718-2.815l.088.234 1.153-2.97a17.882 17.881 0 0 1 1.59-2.349c.283-.397.598-.774.929-1.143l2.456 6.462zM51.104 39.977h2.737v1.613c0 .484.482.966.966.966.483 0 .966-.482.966-.966v-1.612h6.129v1.612c0 .484.482.966.966.966s.967-.482.967-.966v-1.612h6.288v1.612c0 .484.322.966.967.966.484 0 .967-.482.967-.966v-1.612h9.028v1.612c0 .484.325.966.97.966.483 0 .967-.482.967-.966v-1.612h6.123v1.612c0 .484.487.966.971.966s.967-.482.967-.966v-1.612h6.288v1.612c0 .484.322.966.967.966.483 0 .966-.482.966-.966v-1.612h2.318c-.246 1.752-.693 3.582-1.35 5.482-1.612 4.675-4.512 9.834-8.544 15.476-3.224 4.998-5.16 10.156-5.643 15.477-.484 4.191-.002 8.544 1.288 12.897 1.29 4.191 3.066 7.417 4.355 9.513l-6.289-.967 1.774 8.06c-3.87-3.062-7.417-6.611-10.48-10.803-3.064-4.191-5.804-9.026-8.061-14.185-3.386-8.061-4.675-14.67-4.998-16.122v-.16L63.19 64c-4.676-4.997-8.221-9.835-10.156-14.51-1.457-3.31-2.034-6.509-1.93-9.513Zm26.756 7.257.164.806c.161 1.934 1.128 3.547 2.579 4.836 1.45 1.29 3.224 1.933 5.158 1.933 1.934 0 3.71-.644 5.161-1.933 1.451-1.29 2.257-3.063 2.58-4.836l.16-.806zm-17.41.16.16.806c.162 1.935 1.128 3.547 2.58 4.836 1.45 1.29 3.226 1.937 5.16 1.937 1.774 0 3.707-.646 5.158-1.936 1.452-1.29 2.257-3.064 2.58-4.837l.16-.806Zm19.347 1.452h4.317a1.773 1.773 0 0 0-.126.645 1.773 1.773 0 0 0 1.774 1.772 1.773 1.773 0 0 0 1.772-1.773 1.773 1.773 0 0 0-.119-.645h4.635c-.323 1.128-.966 2.097-1.933 2.903-1.129 1.129-2.744 1.612-4.195 1.612-1.612 0-3.062-.644-4.19-1.612-.969-.806-1.612-1.775-1.934-2.903zm-17.574.16h4.39a1.773 1.773 0 0 0-.199.806 1.773 1.773 0 0 0 1.773 1.773 1.773 1.773 0 0 0 1.776-1.773 1.773 1.773 0 0 0-.196-.806h4.708c-.322 1.13-.966 2.097-1.933 2.904-1.129 1.128-2.58 1.611-4.191 1.611-1.612 0-3.066-.644-4.195-1.611-.967-.806-1.611-1.775-1.933-2.904zm15.55 21.302a11.091 11.09 0 0 0-1.846.142c-4.03.644-6.933 3.383-6.45 6.123 0 .323 0 .484.322.807.161-2.418 2.902-4.513 6.449-5.158 3.547-.645 6.773.646 7.74 2.904v-.97c-.408-2.313-2.996-3.82-6.216-3.848Zm.585 5.664c-.422 0-.86.04-1.304.12-3.547.483-5.965 3.386-4.837 5.642.161-1.934 2.26-3.706 5-4.19 2.903-.323 5.32.645 6.125 2.418.283-2.117-2.026-3.988-4.984-3.99zm1.64 6.154a6.109 6.108 0 0 0-1.007.09c-2.742.484-4.516 2.582-3.71 4.355.162-1.45 1.774-2.902 3.87-3.224 2.096-.323 4.032.482 4.677 1.773.282-1.693-1.535-3.015-3.83-2.995z" style="fill:#390075"/></svg>
