<svg xmlns="http://www.w3.org/2000/svg" viewBox="0 0 128 128"><path d="M111.72 15.857c-5.956.002-12.237 5.476-12.558 5.637l-.16.16-.74 1.48a20.303 20.303 0 0 0-1.514-1.157l-.32-.323H60.68l-.32.16c-2.03 1.117-3.802 2.36-5.36 3.772l-1.402-2.805-.162-.162c-.323-.16-6.76-5.637-12.557-5.637-2.737 0-4.995.97-6.766 2.74-2.254 2.254-3.38 5.795-3.218 9.981a50.43 50.43 0 0 0 1.289 9.18c.644 2.898 1.125 5.313.964 7.406 0 1.288-.642 2.736-1.125 4.346-1.288 3.703-2.899 8.373.965 12.076 2.899 2.737 5.315 4.185 7.89 4.99 1.128.322 2.253.485 3.38.485 1.932 0 4.026-.484 6.441-1.45A99.983 99.983 0 0 0 54 65.306c-.41.183-.835.38-1.23.551.463 2.174.5 4.51.345 6.516-.322 4.83-1.61 9.014-1.61 9.014l-1.45 4.832 3.703-3.221c.226-.34 5.385-4.986 8.597-10.68.8 2.6 1.916 5.94 3.48 9.553a69.368 69.368 0 0 0 8.37 14.813c4.024 5.474 8.696 9.983 14.01 13.525l2.896 1.934-2.576-10.79 9.178 1.29-2.252-2.74c0-.162-3.541-4.508-5.635-11.27a33.69 33.69 0 0 1-1.129-11.912c.2-1.994.63-3.987 1.258-5.96 3.04 6.362 9 11.83 9.367 12.075l3.705 3.38-1.449-4.99s-1.29-4.185-1.611-9.015c-.172-2.234-.154-4.832.457-7.188.43.19.916.417 1.314.588 2.255.966 4.51 1.45 6.442 1.45 1.127 0 2.255-.163 3.543-.485 2.577-.805 4.991-2.255 7.89-4.992 3.864-3.703 2.252-8.371.963-12.074-.483-1.61-1.127-3.06-1.127-4.348-.16-2.255.323-4.67.967-7.408.484-2.576 1.126-5.795 1.287-9.176.161-4.186-.965-7.73-3.219-9.984-1.771-1.771-4.185-2.736-6.761-2.737zm.003 2.575v.002c1.77 0 3.382.645 4.67 1.933 1.77 1.772 2.575 4.67 2.414 8.051-.16 3.22-.645 6.118-1.29 8.855-.482 2.899-1.125 5.475-.964 8.051.16 1.61.643 3.219 1.287 4.99.644 1.771 1.289 3.541 1.289 5.15 0 1.61-.485 2.9-1.611 4.026-4.348 4.186-8.212 6.12-14.653 3.543-2.06-.848-4.572-2.005-7.082-3.19 3.287-4.795 5.59-9.347 7.082-13.554a35.732 35.732 0 0 0 .905-3.06h2.156c0 1.931 1.608 3.543 3.54 3.865h1.612c1.933 0 3.54-1.611 3.54-3.543v-8.053c0-1.932-1.607-3.54-3.54-3.54h-1.611c-1.933 0-3.541 1.448-3.541 3.38h-1.404a20.145 20.145 0 0 0-.206-1.77c-.542-3.146-1.909-5.989-4.011-8.402l.953-1.904c.483-.482 1.77-1.448 3.38-2.414 2.738-1.61 5.153-2.416 7.085-2.416zm-71.006 1.29c1.932 0 4.509.804 7.246 2.415 1.61.966 2.898 2.095 3.38 2.416l1.573 3.177c-.15.173-.3.346-.445.524-1.89 2.296-3.206 4.822-3.87 7.57h-1.927c0-1.771-1.609-3.38-3.541-3.38h-1.61c-1.932 0-3.542 1.608-3.542 3.54v8.05c0 1.932 1.61 3.54 3.542 3.54h1.61c1.932 0 3.54-1.608 3.54-3.701v-.16h1.597c.316 2.212.961 4.465 1.945 6.762 1.49 3.439 3.73 6.963 6.633 10.566-2.573 1.216-5.163 2.409-7.276 3.28-4.83 1.931-8.856 1.932-14.652-3.542-1.128-1.127-1.611-2.415-1.611-4.025 0-1.61.646-3.384 1.29-5.154.645-1.772 1.127-3.38 1.288-4.99.16-2.415-.324-5.152-.969-8.05-.644-2.738-1.124-5.637-1.285-8.857-.161-3.381.805-6.278 2.416-8.049 1.127-1.288 2.736-1.931 4.668-1.931zm20.447 7.565h.002l3.22 8.211 2.575-6.76 2.576 6.924 3.22-8.375 3.222 8.375 3.058-8.213 3.06 8.213 2.9-7.568 2.896 7.568 3.06-8.213 3.059 8.213 3.22-8.213 3.221 8.213.723-1.988c.025.128.06.25.082.379.279 1.467.337 3.032.205 4.668h-2.461v-1.612c0-.483-.481-.964-.965-.964-.483 0-.965.48-.965.964v1.61h-6.28v-1.61c0-.483-.482-.964-.966-.964-.483 0-.969.48-.969.964v1.61h-6.115v-1.61c0-.483-.482-.964-.965-.964s-.97.48-.97.964v1.61H71.79v-1.61c0-.483-.484-.964-.967-.964s-.965.48-.965.964v1.61H63.58v-1.61c0-.483-.482-.964-.965-.964s-.967.48-.967.964v1.61H55.53v-1.61c0-.483-.482-.964-.964-.964-.484 0-.967.48-.967.964v1.61h-2.645c.022-.214.038-.43.067-.64.161-.973.403-1.906.716-2.811l.088.23 1.153-2.963a17.862 17.862 0 0 1 1.586-2.348c.283-.395.599-.772.93-1.14l2.452 6.451zm48.305 6.121h1.61a1.786 1.786 0 0 1 1.77 1.772v8.049a1.786 1.786 0 0 1-1.77 1.769h-1.61a1.786 1.786 0 0 1-1.772-1.77v-1.124c0-.484-.321-.807-.804-.807h-2.702c.279-1.556.405-3.054.393-4.508h2.309c.483 0 .804-.324.804-.807v-.804a1.786 1.786 0 0 1 1.772-1.77zm-67.946.805v.16h1.612a1.786 1.786 0 0 1 1.77 1.772v.804c0 .483.321.805.804.805h2.54a21.052 21.052 0 0 0-.142 4.51H45.71c-.483 0-.805.321-.805.804v.965a1.786 1.786 0 0 1-1.77 1.772h-1.61a1.789 1.789 0 0 1-1.774-1.772v-8.049c0-.965.807-1.771 1.773-1.771zm9.342 5.797H53.6v1.61c0 .481.48.964.965.964.482 0 .964-.482.964-.965v-1.61h6.121v1.61c0 .482.482.965.965.965s.965-.482.965-.965v-1.61h6.28v1.61c0 .482.322.965.966.965.483 0 .967-.482.967-.965v-1.61h9.014v1.61c0 .482.326.965.97.965.483 0 .963-.482.963-.965v-1.61h6.118v1.61c0 .482.485.965.968.965.484 0 .965-.482.965-.965v-1.61h6.281v1.61c0 .482.321.965.965.965.484 0 .965-.482.965-.965v-1.61h2.314c-.245 1.751-.692 3.578-1.35 5.475-1.609 4.67-4.504 9.82-8.53 15.455-3.22 4.991-5.152 10.145-5.635 15.457-.483 4.187-.003 8.533 1.285 12.881 1.289 4.186 3.062 7.408 4.35 9.5l-6.282-.965 1.774 8.051c-3.864-3.059-7.408-6.603-10.467-10.789-3.06-4.187-5.797-9.016-8.05-14.168-3.382-8.05-4.67-14.652-4.991-16.101v-.16L62.936 64c-4.67-4.991-8.21-9.82-10.143-14.49-1.455-3.306-2.032-6.5-1.928-9.5zm26.721 7.244.166.805c.161 1.933 1.125 3.542 2.574 4.83 1.449 1.288 3.219 1.931 5.15 1.931 1.933 0 3.705-.643 5.155-1.931 1.449-1.288 2.254-3.058 2.576-4.828l.16-.807zm-17.385.16.16.805c.161 1.932 1.126 3.544 2.575 4.832 1.45 1.288 3.221 1.931 5.154 1.931 1.77 0 3.7-.643 5.15-1.931 1.45-1.288 2.254-3.06 2.576-4.832l.163-.805zm19.319 1.451h4.31a1.77 1.77 0 0 0-.125.645 1.77 1.77 0 0 0 1.772 1.771 1.77 1.77 0 0 0 1.77-1.771 1.77 1.77 0 0 0-.12-.645h4.629c-.322 1.127-.965 2.096-1.932 2.9-1.127 1.128-2.738 1.61-4.187 1.61-1.61 0-3.059-.643-4.186-1.61-.966-.804-1.61-1.773-1.931-2.9zm-17.551.16h4.385a1.77 1.77 0 0 0-.2.805 1.77 1.77 0 0 0 1.772 1.772 1.77 1.77 0 0 0 1.773-1.772 1.77 1.77 0 0 0-.195-.805h4.701c-.322 1.127-.965 2.096-1.932 2.9-1.126 1.128-2.575 1.61-4.185 1.61-1.61 0-3.06-.643-4.188-1.61-.966-.804-1.61-1.773-1.931-2.9zm32.18 13.116a426.144 426.144 0 0 0 3.648 1.705c-1.389 4.45-.873 9.76-.246 13.517-.483-.482-1.127-1.287-1.61-1.931-2.331-2.914-3.89-5.737-4.64-8.176v-.002a36.15 36.15 0 0 1 2.549-4.703c.103-.138.197-.273.298-.41zM58.626 63.17v.002a83.056 83.056 0 0 0 2.053 2.28c0 .322.002.642.164.964.103.416.217 1.12.408 1.986-.844 2.17-2.279 4.537-4.273 7.03-.483.644-1.129 1.287-1.612 1.931.587-3.52 1.08-8.404 0-12.666-.201.092-.383.171-.582.26a284.693 284.693 0 0 0 3.842-1.787zm18.871 7.129a11.092 11.092 0 0 0-1.844.142c-4.026.644-6.922 3.381-6.44 6.118 0 .322 0 .483.321.804.161-2.414 2.9-4.505 6.442-5.15 3.543-.644 6.761.644 7.728 2.898v-.968c-.408-2.31-2.991-3.816-6.207-3.844zm.586 5.658c-.421 0-.862.038-1.305.12-3.543.482-5.955 3.381-4.828 5.636.161-1.933 2.256-3.704 4.992-4.188 2.899-.322 5.313.646 6.118 2.416.282-2.113-2.023-3.982-4.977-3.984zm1.637 6.145a6.1 6.1 0 0 0-1.006.09c-2.738.483-4.51 2.58-3.705 4.351.16-1.45 1.772-2.899 3.865-3.22 2.093-.323 4.026.48 4.67 1.769.281-1.69-1.533-3.01-3.824-2.99zm-56.133 5.511v.002c-.375 0-.79.189-1.274.563l-2.322 1.941c-.376.327-.653.628-.834.906-.18.28-.29.626-.326 1.038v.134l1.186-.002v-.488c0-.185.147-.336.326-.336a.33.33 0 0 1 .33.334v.492l1.107-.002v-.492c0-.185.147-.338.326-.338a.33.33 0 0 1 .327.336v.492h.931v-.496a.33.33 0 0 1 .326-.336.33.33 0 0 1 .327.336v.492h.957v-.496a.33.33 0 0 1 .326-.336.33.33 0 0 1 .328.334v.493l1.078-.002v-.493a.33.33 0 0 1 .326-.336c.18 0 .324.151.324.336v.49h.97v-.119c-.025-.423-.128-.773-.302-1.052-.176-.278-.452-.574-.826-.889l-2.379-1.941c-.447-.375-.858-.565-1.232-.565zm17.156.08c-.447 0-.826.155-1.135.463a1.5 1.5 0 0 0-.463 1.098v9.674c0 .448.155.825.463 1.133.31.309.688.462 1.135.462.447 0 .826-.153 1.135-.462a1.54 1.54 0 0 0 .463-1.133v-3.504l3.101.037v3.467c0 .435.16.809.483 1.123a1.56 1.56 0 0 0 1.133.472 1.57 1.57 0 0 0 1.134-.472c.321-.315.483-.686.483-1.123V96.73c0-1.223-.54-2.088-1.617-2.595.557-.351.953-.748 1.189-1.19.235-.44.354-.963.354-1.568v-2.123a1.5 1.5 0 0 0-.463-1.098 1.5 1.5 0 0 0-1.098-.463 1.56 1.56 0 0 0-1.115.463 1.472 1.472 0 0 0-.483 1.098v2.068l-3.101 3.83v-5.898a1.49 1.49 0 0 0-.463-1.106 1.56 1.56 0 0 0-1.135-.455zm-10.037.018c-.424 0-.793.154-1.107.463a1.526 1.526 0 0 0-.471 1.135v9.619c0 .436.154.806.463 1.115a1.5 1.5 0 0 0 1.115.463c.447 0 .827-.153 1.14-.455a1.49 1.49 0 0 0 .475-1.123v-8.004h2.924v7.969c0 .448.15.828.453 1.142.301.314.695.47 1.143.47a1.5 1.5 0 0 0 1.125-.47c.302-.314.455-.694.455-1.142v-8.168c0-.908-.297-1.631-.89-2.17-.593-.538-1.344-.807-2.25-.807-.704 0-1.305.18-1.807.543-.502.363-.86.897-1.079 1.598 0 .026-.012.037-.037.037-.025 0-.037-.032-.037-.092v-.525c0-.447-.16-.827-.474-1.135a1.57 1.57 0 0 0-1.141-.463zm29.4 0c-.423 0-.791.154-1.105.463a1.526 1.526 0 0 0-.473 1.135v9.619c0 .436.154.806.463 1.115a1.5 1.5 0 0 0 1.115.463 1.59 1.59 0 0 0 1.143-.455 1.49 1.49 0 0 0 .473-1.123v-8.004h2.922v7.969c0 .448.152.828.455 1.142.302.314.695.47 1.142.47a1.5 1.5 0 0 0 1.125-.47c.303-.314.455-.694.455-1.142v-8.168c0-.908-.295-1.631-.888-2.17-.594-.538-1.343-.807-2.25-.807-.703 0-1.307.18-1.809.543-.502.363-.863.897-1.08 1.598 0 .026-.01.037-.035.037s-.037-.032-.037-.092v-.525c0-.447-.159-.827-.473-1.135a1.57 1.57 0 0 0-1.143-.463zm49.95.018c-.435 0-.812.14-1.127.417-.315.278-.471.66-.471 1.145h.002v9.715c0 .484.157.866.47 1.144.316.28.704.418 1.126.418a1.62 1.62 0 0 0 1.11-.418c.313-.278.47-.66.47-1.144v-2.58l2.996-2.707v5.287c0 .484.158.866.473 1.144.315.28.69.418 1.125.418.435 0 .811-.139 1.126-.418.316-.278.473-.66.473-1.144V89.27c0-.484-.154-.861-.463-1.134a1.63 1.63 0 0 0-1.117-.408c-.437 0-.814.14-1.135.417-.32.278-.482.66-.482 1.145v3.977h-2.996V89.27c0-.484-.153-.861-.461-1.134a1.633 1.633 0 0 0-1.12-.408zm-8.934.017c-.486 0-.933.122-1.344.363-.412.243-.738.57-.98.98a2.6 2.6 0 0 0-.363 1.345v8.445c0 .447.158.828.472 1.142a1.53 1.53 0 0 0 1.125.473c.436 0 .8-.158 1.098-.473.296-.314.445-.695.445-1.142v-1.527h1.963c.738 0 1.361-.256 1.87-.764l1.58-1.506c.29-.278.52-.66.683-1.144.164-.484.244-.987.244-1.508a3.97 3.97 0 0 0-.191-1.252 2.26 2.26 0 0 0-.575-.946l-1.742-1.742a2.652 2.652 0 0 0-1.869-.744zm20.086 0c-.486 0-.933.122-1.344.363-.412.243-.738.57-.98.98a2.6 2.6 0 0 0-.364 1.345v8.445c0 .447.16.828.473 1.142a1.53 1.53 0 0 0 1.125.473c.436 0 .8-.158 1.098-.473.296-.314.445-.695.445-1.142v-1.527h1.96c.738 0 1.364-.256 1.872-.764l1.58-1.506c.29-.278.519-.66.682-1.144.164-.485.244-.987.244-1.508a3.97 3.97 0 0 0-.19-1.252 2.26 2.26 0 0 0-.574-.946l-1.742-1.742a2.657 2.657 0 0 0-1.87-.744zm-69.195.018c-.47 0-.91.122-1.315.363-.405.242-.728.57-.97.98a2.595 2.595 0 0 0-.364 1.342v.854c0 .702.11 1.274.334 1.715.224.442.638.764 1.244.97-.64.217-1.062.56-1.27 1.026-.205.467-.308 1.067-.308 1.804v.98c0 .487.12.934.364 1.345.24.413.566.738.97.98a2.51 2.51 0 0 0 1.315.363h4.373a1.675 1.675 0 0 0 1.117-.49c.308-.303.463-.667.463-1.09a1.54 1.54 0 0 0-.463-1.133 1.523 1.523 0 0 0-1.117-.462h-3.848v-1.524h3.54c.421 0 .793-.158 1.107-.47.316-.316.472-.683.472-1.106a1.54 1.54 0 0 0-.463-1.135 1.523 1.523 0 0 0-1.117-.463H52.54v-1.672h3.848c.423 0 .793-.16 1.107-.48.315-.321.473-.712.473-1.135a1.5 1.5 0 0 0-.463-1.1 1.523 1.523 0 0 0-1.117-.462Zm-49.346.002c-.484 0-.93.119-1.334.361-.406.242-.73.57-.97.98-.244.412-.364.86-.364 1.344V99c0 .484.159.866.473 1.143.314.28.703.418 1.125.418.422 0 .791-.14 1.105-.418.315-.277.473-.659.473-1.143v-2.777H5.99c.447 0 .829-.16 1.143-.48.315-.322.47-.681.47-1.116 0-.436-.156-.81-.47-1.117a1.53 1.53 0 0 0-1.108-.463h-2.85V90.94h3.542c.423 0 .794-.161 1.115-.482.32-.321.48-.71.48-1.133 0-.424-.153-.79-.462-1.1a1.542 1.542 0 0 0-1.133-.46Zm7.676 0c-.447 0-.827.155-1.135.463a1.544 1.544 0 0 0-.463 1.134v9.565c0 .437.154.809.463 1.117.308.308.7.463 1.135.463a1.49 1.49 0 0 0 1.105-.463c.303-.31.455-.68.455-1.117v-4.664l3.104 3.775v.889c0 .424.149.793.453 1.107.301.314.684.47 1.107.47.424 0 .787-.154 1.09-.462.303-.309.453-.68.453-1.115v-.926c0-.593-.117-1.107-.353-1.543-.236-.435-.625-.823-1.17-1.162 1.063-.533 1.596-1.398 1.596-2.594v-.707c0-.738-.286-1.392-.854-1.96l-1.54-1.49c-.558-.52-1.193-.78-1.907-.78zm91.27 3.12 3.013.038v3.25h-3.014zm20.085 0 3.014.038v3.25h-3.014zm-109.793.055h3.102v3.05h-3.102Zm15.46 1.893-.007.002v.49a.33.33 0 0 1-.322.336.33.33 0 0 1-.328-.334v-.492l-1.078.004v.49a.333.333 0 0 1-.328.338.33.33 0 0 1-.326-.336v-.49h-.958v.492a.33.33 0 0 1-.324.336.33.33 0 0 1-.328-.334v-.492h-.93v.492a.333.333 0 0 1-.326.338.333.333 0 0 1-.328-.336v-.49l-1.11.002v.49a.33.33 0 0 1-.323.336.33.33 0 0 1-.329-.334v-.492l-1.187.004v6.09c0 .435.158.803.473 1.105.314.302.69.455 1.125.455.435 0 .808-.153 1.117-.455a1.49 1.49 0 0 0 .46-1.106V94.48l3.16 2.921v1.543c0 .436.155.804.464 1.106a1.56 1.56 0 0 0 1.133.455c.448 0 .806-.153 1.109-.455.303-.303.455-.67.455-1.106v-6.109z" style="fill:#390075"/></svg>

