<svg xmlns="http://www.w3.org/2000/svg" viewBox="0 0 128 128"><path d="M0 51.098V76.86h4.422V56.603l16.306 20.27h27.696v-4.115H30.55v-6.799h14.373v-4.115H30.55v-6.621h17.873v-4.116H26.127v4.116h.002V76.68L5.527 51.098H0zm85.09.01v4.115h9.03v21.65h4.421v-21.65h8.846v-4.116H85.09zm-31.322.011 20.73 25.764h5.803L69.936 64.01l10.35-12.871-5.788.007-7.459 9.266-7.482-9.293h-5.79zm70.156 14.598c-.761 0-1.444.129-2.049.394-.602.263-1.079.632-1.426 1.108-.35.475-.525 1.03-.525 1.662 0 .77.258 1.386.78 1.85.518.463 1.228.807 2.124 1.035l1.24.314c.39.098.732.208 1.026.332.29.124.519.278.683.461.162.183.245.417.248.697a1.248 1.248 0 0 1-.28.803c-.184.23-.439.408-.763.535a3.112 3.112 0 0 1-1.132.192c-.411 0-.781-.063-1.114-.184a1.89 1.89 0 0 1-.806-.555 1.625 1.625 0 0 1-.352-.931h-1.941c.027.711.216 1.316.566 1.812s.836.874 1.46 1.131c.62.26 1.357.389 2.202.389.875 0 1.618-.135 2.233-.4.617-.27 1.087-.643 1.414-1.118.327-.478.488-1.03.488-1.658 0-.467-.09-.871-.268-1.217a2.725 2.725 0 0 0-.718-.887 4.21 4.21 0 0 0-1.028-.607 7.063 7.063 0 0 0-1.19-.385l-1.02-.25a7.087 7.087 0 0 1-.667-.195 2.865 2.865 0 0 1-.6-.287 1.302 1.302 0 0 1-.427-.416 1.052 1.052 0 0 1-.158-.582c.006-.269.083-.507.238-.717.156-.21.384-.374.678-.498a2.778 2.778 0 0 1 1.058-.184c.585 0 1.061.126 1.43.383.366.254.575.613.623 1.07h1.899a2.775 2.775 0 0 0-.516-1.607c-.332-.467-.79-.833-1.375-1.096-.584-.265-1.262-.394-2.035-.394zm-7.996.144v7.55c-.003.377-.062.697-.176.954-.117.26-.285.454-.504.584-.219.133-.488.198-.803.198a1.71 1.71 0 0 1-.773-.169 1.25 1.25 0 0 1-.522-.48 1.465 1.465 0 0 1-.195-.75h-1.963c0 .661.148 1.213.448 1.656.296.443.701.78 1.21 1.004.51.225 1.08.34 1.72.34.697 0 1.313-.137 1.837-.402a2.97 2.97 0 0 0 1.234-1.149c.294-.499.443-1.093.446-1.787v-7.549h-1.96zm-53.332.057-8.844 10.984h5.805l5.937-7.38-2.898-3.604zm45.785 8.5c-.324 0-.6.112-.83.336a1.07 1.07 0 0 0-.342.806c-.003.322.111.595.342.819.23.224.506.336.83.336a1.2 1.2 0 0 0 1.002-.572 1.094 1.094 0 0 0-.188-1.389 1.13 1.13 0 0 0-.814-.336z"/></svg>
