<svg xmlns="http://www.w3.org/2000/svg" viewBox="0 0 128 128"><path d="M64 0C28.66 0 0 28.66 0 64s28.66 64 64 64h.002a64 64 0 0 0 35.506-10.837l.44-.297L46.65 48.002v40.884h-7.556V39.095h9.948L82.14 81.731V39.095h7.476v52.267l15.777 20.322-.09-.106-.009.005c-.014.013-.043.034-.083.069l.643.755.006-.006.002.002.076-.066.008-.006-.02-.023.367-.324A64.002 64.002 0 0 0 128 64c0-35.34-28.66-64-64-64Zm0 .992c34.804 0 63.008 28.204 63.008 63.008-.014 17.907-7.665 34.935-20.992 46.87L90.608 91.021V38.103h-9.46v40.732L49.526 38.103H38.103v51.775h9.54V50.905l50.845 65.696C88.245 123.34 76.27 126.983 64 127.008 29.196 127.008.992 98.804.992 64S29.196.992 64 .992Z" /></svg>
