<svg xmlns="http://www.w3.org/2000/svg" viewBox="0 0 128 128"><path d="M0 50.357v26.556h5.38v-19.19l15.446 19.201h5.513l.58.72v-.72H49.04V71.85H31.306v-5.754h14.262V61.02H31.306v-5.577h17.735v-5.076H25.925v5.076h.001V74.83L6.22 50.357Zm84.43.01v5.075h8.96v21.482h5.38V55.442h8.777v-5.076zm-31.62.01.651.807 20.717 25.75h7.033l-10.684-13.27 10.669-13.269-7.018.01-7.162 8.9-7.186-8.927zM.992 51.35h4.75l19.799 24.583h-4.239L4.388 54.907v21.014H.992Zm25.925.01h21.132v3.09H30.314v7.563h14.262v3.09H30.314v7.74h17.735v3.09h-21.13V54.45h-.002zm58.506 0h21.131v3.09h-8.777v21.483h-3.395V54.45h-8.96zm-30.541.011h4.47l7.664 9.516 7.64-9.489 4.466-.006-9.87 12.274 9.886 12.277h-4.483zm7.725 13.397-.386.48-9.426 11.706h7.035l6.29-7.82zm60.852.096c-.81 0-1.56.138-2.232.433-.664.29-1.215.713-1.615 1.258a3.23 3.23 0 0 0-.618 1.944c0 .876.321 1.655.94 2.205.591.529 1.373.899 2.316 1.138l1.23.312h.003c.367.092.683.196.943.306v-.002c.237.101.397.217.5.332.077.086.117.185.12.362a.711.711 0 0 1-.164.483l-.002.002-.002.004c-.119.149-.293.275-.549.376-.256.1-.568.157-.943.157-.357 0-.662-.055-.933-.154h-.002a1.36 1.36 0 0 1-.587-.399 1.095 1.095 0 0 1-.238-.645l-.033-.46h-2.903l.02.516c.029.783.243 1.487.652 2.066.404.57.97 1.007 1.661 1.293.691.289 1.49.424 2.378.424.92 0 1.726-.14 2.413-.438.682-.297 1.233-.728 1.614-1.283v-.002c.382-.558.572-1.215.572-1.924 0-.528-.104-1.013-.32-1.434a3.214 3.214 0 0 0-.843-1.04 4.67 4.67 0 0 0-1.137-.672 7.501 7.501 0 0 0-1.264-.409h.008l-1.016-.248a6.545 6.545 0 0 1-.612-.18h-.002a2.354 2.354 0 0 1-.49-.234l-.004-.002-.004-.002a.775.775 0 0 1-.266-.256v-.002l-.002-.002a.54.54 0 0 1-.075-.303.68.68 0 0 1 .137-.42c.09-.12.236-.234.465-.331.217-.09.503-.146.859-.146.509 0 .872.107 1.136.29.256.179.372.377.407.708l.046.444h2.835l-.008-.504a3.282 3.282 0 0 0-.604-1.876c-.384-.538-.915-.958-1.562-1.25h-.002c-.656-.298-1.402-.436-2.223-.436zm-8.43.143v7.986c-.003.323-.055.574-.132.746a.727.727 0 0 1-.3.355l-.002.002h-.002c-.123.075-.294.124-.539.124-.223 0-.398-.04-.542-.112l-.004-.002a.722.722 0 0 1-.312-.29.948.948 0 0 1-.124-.493l-.006-.49h-2.934v.495c0 .729.166 1.384.527 1.92h.002a3.27 3.27 0 0 0 1.412 1.174 4.7 4.7 0 0 0 1.905.38c.758 0 1.45-.15 2.049-.454a3.471 3.471 0 0 0 1.426-1.328v-.002h.002c.341-.58.507-1.265.51-2.023v-7.988zm8.43.849c.712 0 1.311.118 1.814.347h.002c.511.23.887.537 1.163.924h.002c.169.236.191.533.258.81h-.992c-.14-.361-.248-.749-.57-.973-.468-.326-1.05-.469-1.702-.469-.457 0-.874.068-1.24.22l-.002.001h-.002c-.351.148-.657.361-.876.655h-.002c-.215.29-.325.642-.333.996v.012c0 .3.075.595.234.843a.008.008 0 0 0 .002.002c.144.226.342.421.582.568a3.3 3.3 0 0 0 .69.331h.002c.234.081.47.151.705.208l1.017.248h.004a6.516 6.516 0 0 1 1.097.355v.001h.002a3.7 3.7 0 0 1 .9.532c.247.2.438.437.583.72.135.265.211.583.211.981 0 .538-.13.974-.397 1.364-.267.389-.65.698-1.192.934-.532.23-1.2.357-2.017.357-.788 0-1.455-.12-1.995-.347h-.002v-.002c-.543-.224-.94-.536-1.232-.95-.19-.268-.236-.654-.312-1.015h.951c.078.259.118.537.283.74l.002.004.002.002c.265.318.614.55 1.008.698h.002l.002.002c.39.142.817.211 1.275.211.475 0 .913-.07 1.304-.223v-.002h.002a2.26 2.26 0 0 0 .96-.682c.252-.31.386-.702.39-1.103v-.01a1.556 1.556 0 0 0-.37-1.015h-.003l-.002-.002a2.383 2.383 0 0 0-.853-.581v-.002a7.474 7.474 0 0 0-1.089-.353h-.002l-1.228-.312c-.834-.212-1.462-.525-1.9-.917h-.002c-.415-.369-.606-.81-.606-1.465 0-.535.139-.968.424-1.354l.002-.002c.29-.396.682-.705 1.211-.936h.002v-.002c.53-.233 1.135-.35 1.834-.35zm-7.438.143h.952v6.994c-.003.618-.133 1.112-.374 1.522a2.424 2.424 0 0 1-1.021.95c-.442.223-.971.344-1.6.344a3.678 3.678 0 0 1-1.505-.294 2.226 2.226 0 0 1-.988-.818l-.002-.002v-.002c-.148-.219-.172-.56-.23-.868h.956c.044.17.045.356.134.503.172.287.424.514.72.663l.001.002h.002c.3.15.637.22.988.22.379 0 .741-.08 1.05-.266l.003-.002c.306-.183.545-.466.696-.8l.002-.003c.148-.336.213-.72.217-1.145v-.002zm-53.414.35 2.238 2.786-5.492 6.827h-4.485zm45.43 7.148c-.435 0-.859.172-1.17.475-.312.303-.49.723-.487 1.155-.003.438.174.862.486 1.167.312.303.736.475 1.171.475.29 0 .573-.08.818-.223.246-.141.45-.343.597-.578v-.002h.002c.154-.25.234-.539.238-.831v-.014a1.667 1.667 0 0 0-1.655-1.624zm0 .992c.19 0 .313.048.461.192l.002.002.002.002c.147.14.193.256.196.442a.662.662 0 0 1-.335.558l-.006.004-.004.002a.573.573 0 0 1-.316.085.598.598 0 0 1-.477-.191.542.542 0 0 1-.19-.454v-.008c-.002-.187.045-.3.19-.442a.598.598 0 0 1 .477-.191z"/></svg>
