<svg xmlns="http://www.w3.org/2000/svg" xmlns:xlink="http://www.w3.org/1999/xlink" viewBox="0 0 128 128"><ellipse cx="52.738" cy="65.101" fill="#4b73ff" filter="url(#lovable-original-a)" mask="url(#lovable-original-b)" rx="81.373" ry="81.192" transform="translate(.92) scale(1.04949)"/><ellipse cx="61.673" cy="20.547" fill="#ff66f4" filter="url(#lovable-original-c)" mask="url(#lovable-original-d)" rx="104.216" ry="81.192" transform="translate(.92) scale(1.04949)"/><ellipse cx="78.666" cy="5.268" fill="#ff0105" filter="url(#lovable-original-e)" mask="url(#lovable-original-f)" rx="81.373" ry="71.304" transform="translate(.92) scale(1.04949)"/><ellipse cx="63.121" cy="20.527" fill="#fe7b02" filter="url(#lovable-original-g)" mask="url(#lovable-original-h)" rx="48.937" ry="48.829" transform="translate(.92) scale(1.04949)"/><defs><linearGradient id="lovable-original-i" x1="40.453" x2="76.933" y1="21.433" y2="121.971" gradientTransform="translate(.92) scale(1.04949)" gradientUnits="userSpaceOnUse"><stop offset=".025" stop-color="#ff8e63"/><stop offset=".56" stop-color="#ff7eb0"/><stop offset=".95" stop-color="#4b73ff"/></linearGradient><linearGradient href="#lovable-original-i" id="lovable-original-j" x1="40.453" x2="76.933" y1="21.433" y2="121.971" gradientTransform="translate(.92) scale(1.04949)" gradientUnits="userSpaceOnUse"/><linearGradient href="#lovable-original-i" id="lovable-original-k" x1="40.453" x2="76.933" y1="21.433" y2="121.971" gradientTransform="translate(.92) scale(1.04949)" gradientUnits="userSpaceOnUse"/><linearGradient href="#lovable-original-i" id="lovable-original-l" x1="40.453" x2="76.933" y1="21.433" y2="121.971" gradientTransform="translate(.92) scale(1.04949)" gradientUnits="userSpaceOnUse"/><linearGradient href="#lovable-original-i" id="lovable-original-m" x1="40.453" x2="76.933" y1="21.433" y2="121.971" gradientTransform="translate(.92) scale(1.04949)" gradientUnits="userSpaceOnUse"/><filter id="lovable-original-a" width="235.52" height="235.159" x="-65.022" y="-52.478" color-interpolation-filters="sRGB" filterUnits="userSpaceOnUse"><feFlood flood-opacity="0" result="BackgroundImageFix"/><feBlend in="SourceGraphic" in2="BackgroundImageFix" result="shape"/><feGaussianBlur result="effect1_foregroundBlur_572_319" stdDeviation="18.194"/></filter><filter id="lovable-original-c" width="281.208" height="235.159" x="-78.93" y="-97.032" color-interpolation-filters="sRGB" filterUnits="userSpaceOnUse"><feFlood flood-opacity="0" result="BackgroundImageFix"/><feBlend in="SourceGraphic" in2="BackgroundImageFix" result="shape"/><feGaussianBlur result="effect1_foregroundBlur_572_319" stdDeviation="18.194"/></filter><filter id="lovable-original-e" width="235.52" height="215.383" x="-39.094" y="-102.423" color-interpolation-filters="sRGB" filterUnits="userSpaceOnUse"><feFlood flood-opacity="0" result="BackgroundImageFix"/><feBlend in="SourceGraphic" in2="BackgroundImageFix" result="shape"/><feBlend in="SourceGraphic" in2="BackgroundImageFix" result="shape"/><feGaussianBlur result="effect1_foregroundBlur_572_319" stdDeviation="18.194"/></filter><filter id="lovable-original-g" width="170.649" height="170.432" x="-22.204" y="-64.688" color-interpolation-filters="sRGB" filterUnits="userSpaceOnUse"><feFlood flood-opacity="0" result="BackgroundImageFix"/><feBlend in="SourceGraphic" in2="BackgroundImageFix" result="shape"/><feGaussianBlur result="effect1_foregroundBlur_572_319" stdDeviation="18.194"/></filter><mask id="lovable-original-h" maskUnits="userSpaceOnUse"><path fill="url(#lovable-original-j)" fill-rule="evenodd" stroke-width="1.049" d="M38.774 0C59.68 0 76.628 16.955 76.628 37.87v14.392h12.598c20.905 0 37.854 16.955 37.854 37.87 0 20.913-16.949 37.868-37.854 37.868H.92V37.87C.92 16.954 17.868 0 38.774 0" clip-rule="evenodd" transform="translate(-.877) scale(.95284)"/></mask><mask id="lovable-original-f" maskUnits="userSpaceOnUse"><path fill="url(#lovable-original-k)" fill-rule="evenodd" stroke-width="1.049" d="M38.774 0C59.68 0 76.628 16.955 76.628 37.87v14.392h12.598c20.905 0 37.854 16.955 37.854 37.87 0 20.913-16.949 37.868-37.854 37.868H.92V37.87C.92 16.954 17.868 0 38.774 0" clip-rule="evenodd" transform="translate(-.877) scale(.95284)"/></mask><mask id="lovable-original-d" maskUnits="userSpaceOnUse"><path fill="url(#lovable-original-l)" fill-rule="evenodd" stroke-width="1.049" d="M38.774 0C59.68 0 76.628 16.955 76.628 37.87v14.392h12.598c20.905 0 37.854 16.955 37.854 37.87 0 20.913-16.949 37.868-37.854 37.868H.92V37.87C.92 16.954 17.868 0 38.774 0" clip-rule="evenodd" transform="translate(-.877) scale(.95284)"/></mask><mask id="lovable-original-b" maskUnits="userSpaceOnUse"><path fill="url(#lovable-original-m)" fill-rule="evenodd" stroke-width="1.049" d="M38.774 0C59.68 0 76.628 16.955 76.628 37.87v14.392h12.598c20.905 0 37.854 16.955 37.854 37.87 0 20.913-16.949 37.868-37.854 37.868H.92V37.87C.92 16.954 17.868 0 38.774 0" clip-rule="evenodd" transform="translate(-.877) scale(.95284)"/></mask></defs></svg>
