<svg xmlns="http://www.w3.org/2000/svg" xmlns:xlink="http://www.w3.org/1999/xlink" fill="none" viewBox="0 0 128 128"><path fill="#000" d="M120.521 74.855q-2.374 0-4.125-.905-1.75-.921-2.73-2.76-.965-1.84-.965-4.556 0-2.582 1.01-4.451 1.008-1.885 2.789-2.864 1.78-.98 4.051-.98 2.181 0 3.873.95t2.626 2.76q.95 1.81.95 4.333 0 .904-.015 1.44H116.16v-3.117h8.962l-1.691.579q0-1.217-.356-2.033-.341-.832-1.01-1.246-.668-.416-1.617-.416-.994 0-1.75.49-.743.474-1.158 1.424-.4.95-.401 2.285v1.529q0 1.365.415 2.315.416.95 1.188 1.44.77.474 1.825.474 1.157 0 1.914-.594.756-.608.95-1.706h4.496q-.209 1.721-1.172 2.982-.951 1.262-2.538 1.944-1.587.683-3.695.683m-13.662-21.71h4.496v21.28h-4.496zm-7.65 21.71q-1.277 0-2.286-.445a4.4 4.4 0 0 1-1.692-1.336q-.697-.904-1.038-2.226l.474.134v3.442h-4.451V58.77h4.496v3.502l-.505.09q.341-1.263 1.04-2.152a4.7 4.7 0 0 1 1.735-1.38q1.025-.49 2.3-.49 1.915 0 3.324.994 1.41.995 2.167 2.864.756 1.855.756 4.407 0 2.537-.771 4.407-.772 1.856-2.211 2.85-1.425.994-3.339.994m-1.396-3.428q1.01 0 1.692-.594.697-.593 1.039-1.676.356-1.084.356-2.553 0-1.47-.356-2.552-.341-1.083-1.04-1.677-.681-.608-1.69-.608-.995 0-1.707.608-.697.594-1.054 1.692-.356 1.083-.356 2.537 0 1.47.356 2.553.357 1.082 1.054 1.676.713.594 1.706.594m-7.597-18.282h4.496v5.624h-4.496ZM78.931 74.855q-1.47 0-2.641-.579a4.45 4.45 0 0 1-1.825-1.647q-.654-1.083-.653-2.522 0-2.197 1.29-3.354 1.292-1.173 3.725-1.528l2.716-.386q.816-.12 1.29-.297.476-.178.698-.475.223-.312.223-.786a1.57 1.57 0 0 0-.267-.89q-.253-.416-.772-.654-.504-.252-1.232-.252-1.157 0-1.854.609-.698.593-.757 1.632h-4.645q.06-1.574.95-2.79.906-1.23 2.508-1.914t3.71-.683q2.21 0 3.739.727 1.529.713 2.3 2.048.786 1.336.786 3.19v6.53q0 1.053.149 1.958.163.891.46 1.128v.505h-4.675a10.6 10.6 0 0 1-.252-1.44 18 18 0 0 1-.104-1.691l.727-.312a4.96 4.96 0 0 1-1.038 1.944q-.743.875-1.914 1.41-1.158.519-2.642.519m1.662-3.294q.95 0 1.677-.416a2.86 2.86 0 0 0 1.113-1.187q.4-.756.4-1.721v-2.048l.371.208a2.35 2.35 0 0 1-.89.727q-.519.252-1.41.43l-1.142.223q-1.143.222-1.721.682-.564.46-.564 1.291 0 .832.608 1.321.609.49 1.558.49M58.52 58.77h4.778l4.11 13.429h-1.44l3.948-13.43h4.644l-5.416 15.656h-5zm-7.03 16.085q-2.328 0-4.095-1.01-1.75-1.008-2.715-2.878-.95-1.869-.95-4.377t.95-4.363q.965-1.87 2.715-2.879 1.767-1.008 4.096-1.009t4.08 1.01q1.752 1.008 2.701 2.878.965 1.855.965 4.363 0 2.507-.965 4.377-.95 1.87-2.7 2.879-1.752 1.01-4.081 1.009m0-3.443q.98 0 1.678-.534.697-.549 1.068-1.617.37-1.083.371-2.671 0-2.36-.816-3.576-.816-1.233-2.3-1.232-.98 0-1.692.549-.697.534-1.068 1.617-.37 1.069-.371 2.642 0 1.572.37 2.656.372 1.083 1.07 1.632.711.534 1.69.534M30.587 53.145h4.66v17.963l-.831-.964h6.277c3.97 0 3.427 4.28 3.427 4.28H30.587Z"/><circle cx="65.281" cy="80.767" r="100.733" fill="#4b73ff" filter="url(#lovable-original-wordmark-a)" mask="url(#lovable-original-wordmark-b)" transform="translate(0 53.145) scale(.14062)"/><ellipse cx="76.349" cy="25.488" fill="#ff66f4" filter="url(#lovable-original-wordmark-c)" mask="url(#lovable-original-wordmark-d)" rx="129.012" ry="100.733" transform="translate(0 53.145) scale(.14062)"/><ellipse cx="97.393" cy="6.54" fill="#ff0105" filter="url(#lovable-original-wordmark-e)" mask="url(#lovable-original-wordmark-f)" rx="100.733" ry="88.465" transform="translate(0 53.145) scale(.14062)"/><circle cx="78.143" cy="25.468" r="60.581" fill="#fe7b02" filter="url(#lovable-original-wordmark-g)" mask="url(#lovable-original-wordmark-h)" transform="translate(0 53.145) scale(.14062)"/><defs><linearGradient id="lovable-original-wordmark-i" x1="50.077" x2="95.414" y1="26.591" y2="151.261" gradientUnits="userSpaceOnUse"><stop offset=".025" stop-color="#ff8e63"/><stop offset=".56" stop-color="#ff7eb0"/><stop offset=".95" stop-color="#4b73ff"/></linearGradient><linearGradient xlink:href="#lovable-original-wordmark-i" id="lovable-original-wordmark-j" x1="50.077" x2="95.414" y1="26.591" y2="151.261" gradientUnits="userSpaceOnUse"/><linearGradient xlink:href="#lovable-original-wordmark-i" id="lovable-original-wordmark-k" x1="50.077" x2="95.414" y1="26.591" y2="151.261" gradientUnits="userSpaceOnUse"/><linearGradient xlink:href="#lovable-original-wordmark-i" id="lovable-original-wordmark-l" x1="50.077" x2="95.414" y1="26.591" y2="151.261" gradientUnits="userSpaceOnUse"/><linearGradient xlink:href="#lovable-original-wordmark-i" id="lovable-original-wordmark-m" x1="50.077" x2="95.414" y1="26.591" y2="151.261" gradientUnits="userSpaceOnUse"/><filter id="lovable-original-wordmark-a" width="291.756" height="291.756" x="-80.597" y="-65.111" color-interpolation-filters="sRGB" filterUnits="userSpaceOnUse"><feFlood flood-opacity="0" result="BackgroundImageFix"/><feBlend in="SourceGraphic" in2="BackgroundImageFix" result="shape"/><feGaussianBlur result="effect1_foregroundBlur_313_127" stdDeviation="22.572"/></filter><filter id="lovable-original-wordmark-c" width="348.313" height="291.756" x="-97.808" y="-120.39" color-interpolation-filters="sRGB" filterUnits="userSpaceOnUse"><feFlood flood-opacity="0" result="BackgroundImageFix"/><feBlend in="SourceGraphic" in2="BackgroundImageFix" result="shape"/><feGaussianBlur result="effect1_foregroundBlur_313_127" stdDeviation="22.572"/></filter><filter id="lovable-original-wordmark-e" width="291.756" height="267.22" x="-48.486" y="-127.071" color-interpolation-filters="sRGB" filterUnits="userSpaceOnUse"><feFlood flood-opacity="0" result="BackgroundImageFix"/><feBlend in="SourceGraphic" in2="BackgroundImageFix" result="shape"/><feBlend in="SourceGraphic" in2="BackgroundImageFix" result="shape"/><feGaussianBlur result="effect1_foregroundBlur_313_127" stdDeviation="22.572"/></filter><filter id="lovable-original-wordmark-g" width="211.451" height="211.451" x="-27.582" y="-80.257" color-interpolation-filters="sRGB" filterUnits="userSpaceOnUse"><feFlood flood-opacity="0" result="BackgroundImageFix"/><feBlend in="SourceGraphic" in2="BackgroundImageFix" result="shape"/><feGaussianBlur result="effect1_foregroundBlur_313_127" stdDeviation="22.572"/></filter><mask id="lovable-original-wordmark-h" maskUnits="userSpaceOnUse"><path fill="url(#lovable-original-wordmark-j)" fill-rule="evenodd" d="M44.65 0C69.31 0 89.3 20.043 89.3 44.768v17.015h14.86c24.66 0 44.65 20.043 44.65 44.767s-19.99 44.768-44.65 44.768H0V44.768C0 20.043 19.99 0 44.65 0" clip-rule="evenodd"/></mask><mask id="lovable-original-wordmark-b" maskUnits="userSpaceOnUse"><path fill="url(#lovable-original-wordmark-k)" fill-rule="evenodd" d="M44.65 0C69.31 0 89.3 20.043 89.3 44.768v17.015h14.86c24.66 0 44.65 20.043 44.65 44.767s-19.99 44.768-44.65 44.768H0V44.768C0 20.043 19.99 0 44.65 0" clip-rule="evenodd"/></mask><mask id="lovable-original-wordmark-d" maskUnits="userSpaceOnUse"><path fill="url(#lovable-original-wordmark-l)" fill-rule="evenodd" d="M44.65 0C69.31 0 89.3 20.043 89.3 44.768v17.015h14.86c24.66 0 44.65 20.043 44.65 44.767s-19.99 44.768-44.65 44.768H0V44.768C0 20.043 19.99 0 44.65 0" clip-rule="evenodd"/></mask><mask id="lovable-original-wordmark-f" maskUnits="userSpaceOnUse"><path fill="url(#lovable-original-wordmark-m)" fill-rule="evenodd" d="M44.65 0C69.31 0 89.3 20.043 89.3 44.768v17.015h14.86c24.66 0 44.65 20.043 44.65 44.767s-19.99 44.768-44.65 44.768H0V44.768C0 20.043 19.99 0 44.65 0" clip-rule="evenodd"/></mask></defs></svg>
