<svg xmlns="http://www.w3.org/2000/svg" viewBox="0 0 128 128"><path fill="#000000" d="M30.588 53.145v21.279h13.531s.544-4.28-3.426-4.28h-5.447v-17h-4.658zm76.271 0v21.28h4.496v-21.28h-4.496zm-16.642.001v21.278h4.451V72.15c.164.337.35.647.564.924a4.4 4.4 0 0 0 1.692 1.336c.672.297 1.436.445 2.287.445 1.275 0 2.388-.331 3.338-.994.96-.662 1.696-1.612 2.21-2.85.515-1.246.77-2.714.77-4.406 0-1.7-.252-3.171-.756-4.408-.504-1.246-1.226-2.2-2.166-2.863-.939-.663-2.047-.994-3.324-.994-.85 0-1.617.163-2.3.49a4.7 4.7 0 0 0-1.735 1.38 5.307 5.307 0 0 0-.535.847v-7.911h-4.496zm-83.922.002a6.295 6.32 0 0 0-6.291 6.278H0v.039a6.295 6.32 0 0 0 0 .004 6.295 6.32 0 0 0 0 .004v14.951h11.152v-.004h3.698v-.02a6.276 6.283 0 0 0 6.136-6.271 6.276 6.283 0 0 0-6.23-6.28v-.023H12.59v-2.61h-.008a6.295 6.32 0 0 0-6.287-6.068zM51.49 58.34c-1.552 0-2.917.336-4.095 1.008-1.167.672-2.072 1.632-2.715 2.879-.634 1.236-.95 2.69-.95 4.363 0 1.672.316 3.13.95 4.377.643 1.246 1.548 2.207 2.715 2.879 1.178.673 2.543 1.01 4.095 1.01 1.553 0 2.914-.337 4.082-1.01 1.167-.673 2.066-1.633 2.7-2.88.643-1.246.964-2.705.964-4.376 0-1.672-.321-3.127-.965-4.363-.632-1.247-1.533-2.205-2.7-2.877-1.168-.674-2.528-1.01-4.08-1.01zm29.905 0c-1.406 0-2.641.225-3.71.681-1.067.456-1.903 1.095-2.507 1.915-.594.81-.911 1.741-.951 2.79h4.644c.04-.692.293-1.237.758-1.632.465-.406 1.082-.61 1.853-.61.486 0 .897.084 1.233.252.346.159.603.377.771.655a1.57 1.57 0 0 1 .268.89c0 .316-.074.577-.223.785-.148.198-.382.358-.699.477-.316.118-.745.217-1.289.297l-2.717.385c-1.622.236-2.863.747-3.724 1.529-.86.771-1.29 1.889-1.29 3.353 0 .96.217 1.8.653 2.522a4.45 4.45 0 0 0 1.824 1.646c.78.386 1.663.58 2.643.58.989 0 1.868-.173 2.64-.52.78-.356 1.419-.826 1.914-1.41a4.96 4.96 0 0 0 .38-.55 18 18 0 0 0 .036.61 10.6 10.6 0 0 0 .252 1.44h4.674v-.505c-.198-.158-.35-.533-.459-1.127-.1-.603-.148-1.257-.148-1.959v-6.53c0-1.235-.263-2.3-.787-3.19-.514-.89-1.28-1.572-2.3-2.048-1.019-.484-2.266-.726-3.74-.726zm39.156 0c-1.514 0-2.864.325-4.051.978-1.187.653-2.117 1.609-2.79 2.866-.672 1.246-1.009 2.73-1.009 4.45 0 1.811.322 3.329.965 4.555.653 1.226 1.564 2.146 2.73 2.76 1.168.604 2.543.906 4.125.906 1.406 0 2.638-.228 3.696-.683 1.058-.455 1.905-1.102 2.539-1.943.642-.841 1.032-1.836 1.172-2.983h-4.496c-.13.732-.448 1.3-.952 1.705-.504.396-1.142.596-1.914.596-.703 0-1.31-.159-1.824-.475-.514-.326-.91-.806-1.187-1.44-.224-.51-.354-1.118-.397-1.81h10.826c.01-.357.016-.837.016-1.44 0-1.681-.316-3.127-.95-4.333-.622-1.207-1.498-2.127-2.626-2.76s-2.42-.95-3.873-.95zm-62.031.43 5.625 15.656h5L74.56 58.77h-4.645l-3.242 11.029-3.375-11.03h-4.78zm61.927 2.82c.633 0 1.172.139 1.617.416.446.276.783.691 1.01 1.246.176.403.265.903.31 1.453h-6.163c.065-.44.167-.843.318-1.201.277-.633.663-1.11 1.158-1.426.504-.327 1.088-.488 1.75-.488zm-22.633.178c.673 0 1.236.204 1.69.609.466.396.814.954 1.04 1.676.238.721.356 1.572.356 2.552s-.118 1.83-.355 2.553c-.228.722-.574 1.28-1.04 1.676-.454.396-1.02.594-1.692.594-.663 0-1.23-.198-1.706-.594-.464-.396-.816-.954-1.054-1.676-.238-.722-.356-1.573-.356-2.553 0-.969.118-1.815.356-2.537.238-.732.59-1.295 1.054-1.691.475-.405 1.044-.61 1.707-.61zm-46.322.013c.99 0 1.757.41 2.301 1.233.544.81.814 2.003.814 3.576 0 1.059-.124 1.95-.37 2.672-.248.712-.602 1.25-1.067 1.617-.465.356-1.026.533-1.68.533-.652 0-1.215-.177-1.69-.533-.465-.366-.822-.91-1.07-1.633-.246-.723-.369-1.608-.369-2.656.001-1.049.125-1.93.371-2.643.248-.722.604-1.26 1.069-1.617.474-.366 1.038-.549 1.691-.549zM83.783 66.7v1.537c0 .644-.134 1.217-.4 1.721a2.86 2.86 0 0 1-1.113 1.188c-.485.277-1.043.416-1.676.416s-1.153-.164-1.559-.49c-.405-.327-.607-.766-.607-1.321 0-.554.186-.984.562-1.291.386-.307.96-.534 1.723-.682l1.14-.222c.595-.119 1.065-.264 1.41-.432a2.35 2.35 0 0 0 .52-.424z"/></svg>
