<svg xmlns="http://www.w3.org/2000/svg" viewBox="0 0 128 128"><path d="M78.66 30.89l6.65-3.85V14.72L57.33 30.9a2.67 2.67 0 000 4.62l28 16.17V71.7a8 8 0 01-4 6.93L72 84.03a16 16 0 01-16 0L36 72.46a2.67 2.67 0 00-4 2.31v32.34l10.67-6.16v-7.7a2.67 2.67 0 014-2.3L56 96.33a16 16 0 0016 0L92 84.8a8 8 0 004-6.93V45.52L78.66 35.51a2.66 2.66 0 010-4.62" fill="#4122AA"/><path d="M72 59.38a16 16 0 01-16 0l-13.33-7.7-5.33-3.07L32 45.52l-19.2-11.1a16.19 16.19 0 00-2.13 8.03v43.1c0 5.68 2.99 10.93 7.9 13.78.02.03.07.06.1.08L32 107.12V74.79a2.67 2.67 0 014-2.3l1.34.76 5.33 3.07L56 84.02a16 16 0 0016 0l9.34-5.4a8 8 0 004-6.92V51.68L72 59.38" fill="url(#msbuild-original-paint0_linear_2607_2191)"/><path d="M85.33 51.68L72 59.38a16 16 0 01-16 0l-13.33-7.7-5.33-3.07L32 45.52l-19.2-11.1a15.9 15.9 0 015.7-5.73.56.56 0 01.17-.1L56 7.04a16.02 16.02 0 0116 0l13.3 7.68-27.97 16.17a2.67 2.67 0 000 4.62l28 16.17" fill="url(#msbuild-original-paint1_linear_2607_2191)"/><path d="M115.2 34.43L96 45.52 78.66 35.51a2.66 2.66 0 010-4.62l6.65-3.85L96 20.88l13.33 7.7c.02.04.08.06.1.09a16.1 16.1 0 015.76 5.76" fill="#7455DD"/><path d="M115.2 34.43L96 45.52v32.35a8 8 0 01-3.99 6.92L72 96.34a16 16 0 01-16 0l-9.33-5.4a2.67 2.67 0 00-4 2.32v20.02L56 120.96a15.85 15.85 0 008 2.13c2.78 0 5.52-.7 8-2.13l37.34-21.55a15.88 15.88 0 008-13.87V42.45c0-2.88-.78-5.65-2.14-8.02" fill="url(#msbuild-original-paint2_linear_2607_2191)"/><defs><linearGradient id="msbuild-original-paint0_linear_2607_2191" x1="48" y1="30.82" x2="48" y2="107.12" gradientUnits="userSpaceOnUse"><stop stop-color="#B9AAEE"/><stop offset="1" stop-color="#9780E5"/></linearGradient><linearGradient id="msbuild-original-paint1_linear_2607_2191" x1="67.95" y1="5.33" x2="32.64" y2="49.6" gradientUnits="userSpaceOnUse"><stop stop-color="#DCD5F6"/><stop offset="1" stop-color="#CBBFF2"/></linearGradient><linearGradient id="msbuild-original-paint2_linear_2607_2191" x1="117.34" y1="116" x2="26.49" y2="116" gradientUnits="userSpaceOnUse"><stop offset=".39" stop-color="#5B35DE"/><stop offset="1" stop-color="#7455DD"/></linearGradient></defs></svg>
