<svg xmlns="http://www.w3.org/2000/svg" viewBox="0 0 128 128"><path fill="#5B35DE" d="M96 46.13q.15 0 .3-.09l19.14-11.06.05-.02a16.18 16.18 0 011.85 7.5v43.08c0 5.68-2.96 10.91-7.84 13.76-.06.06-.11.08-.16.11L72 120.96a15.85 15.85 0 01-8 2.13 15.87 15.87 0 01-8-2.13l-13.33-7.68V93.26a2.67 2.67 0 014-2.31L56 96.34a16 16 0 0016 0L92 84.8A8 8 0 0096 77.87V46.13zm-10.66 6.24V71.7a8 8 0 01-1.88 5.14 8 8 0 01-2.12 1.79L72 84.02a16.01 16.01 0 01-10.78 1.9 16.01 16.01 0 01-5.22-1.9l-13.33-7.7-5.33-3.07-1.33-.77a2.67 2.67 0 00-4 2.31v32.33l-13.34-7.7-.1-.09c-4.91-2.85-7.9-8.1-7.9-13.78v-43.1a16.19 16.19 0 011.84-7.5l19.2 11.09 5.33 3.1 5.33 3.06 13.33 7.7q2.53 1.46 5.42 1.97 2.88.5 5.76 0 2.89-.5 5.42-1.97l13.04-7.53zm0-.69L72 59.38a16.01 16.01 0 01-10.78 1.9 16.01 16.01 0 01-5.22-1.9l-13.33-7.7-5.33-3.07L32 45.52l-18.68-10.8-.52-.3a15.89 15.89 0 015.7-5.73.57.57 0 01.17-.1L56 7.04a16.02 16.02 0 0116 0l13.3 7.68-27.97 16.17a2.67 2.67 0 000 4.62l28 16.17zm29.86-17.25l-.52.3L96 45.52 78.66 35.51a2.66 2.66 0 010-4.62l6.65-3.85L96 20.88l13.33 7.7c.02.04.08.06.1.09a16.1 16.1 0 015.76 5.76z"/></svg>
