<svg xmlns="http://www.w3.org/2000/svg" viewBox="0 0 128 128"><path fill="#5B35DE" d="M18.25 27.79l37.3-21.53q8.45-4.87 16.9 0l13.15 7.6q.37.08.52.38.08.11.1.23.06.2-.01.43V25.5l9.34-5.39q.45-.26.9 0l13.34 7.71.12.08.04.03q3.76 2.2 6.03 6.05l.04.07q2.22 3.91 2.22 8.41v43.1q0 9.65-8.22 14.5-.11.08-.25.15l-37.32 21.54q-3.88 2.25-8.45 2.25-4.53.02-8.45-2.25l-13.33-7.68q-.45-.26-.45-.78v-10.76l-9.16 5.29q-.16.18-.36.23-.22.06-.47-.03-.34-.06-.5-.27l-13.06-7.55-.12-.08-.05-.03q-8.28-4.85-8.28-14.53v-43.1q0-4.53 2.25-8.46v-.01q2.2-3.8 5.96-6.02.13-.1.27-.17zm-6.68 57.76q0 8.68 7.45 13l.11.08.05.04 11.92 6.89V74.78q0-2.06 3.56-4.12l7.05 4.07 1.4.81 13.34 7.7q7.55 4.36 15.1 0l9.34-5.39q.77-.45 1.38-1 2.16-1.95 2.16-5.15V53.24l-11.97 6.92-.06.03q-8.43 4.83-16.85-.03l-13.33-7.7-5.33-3.07-5.34-3.1-18.4-10.62q-1.58 3.18-1.58 6.78v43.1zm103.28-49.88L96.9 46.04v31.83q0 5.13-4.44 7.7L76.2 94.95l-3.75 2.17q-8.45 4.88-16.9 0l-9.33-5.39q-.89-.5-1.77 0-.4.23-.62.57-.26.4-.26.96v19.5l12.88 7.42q3.5 2.03 7.55 2.01 4.08 0 7.55-2l37.34-21.56.03-.01.12-.1q7.4-4.31 7.4-12.97v-43.1q0-3.6-1.6-6.78zM55.1 33.2q0-2.06 1.78-3.09l26.63-15.39-11.96-6.9q-7.55-4.35-15.1 0L19.12 29.37l-.04.02-.12.08q-3 1.77-4.9 4.64l18.4 10.63 5.32 3.1 5.34 3.06 13.33 7.7q7.08 4.09 14.16.51.34-.17.67-.36.16-.18.43-.24l11.82-6.83L56.88 36.3q-1.78-1.03-1.78-3.09zm40 12.84L78.21 36.3q-1.78-1.03-1.78-3.09 0-1.94 1.59-2.97.2-.23.45-.27l5.94-3.44V16.28l-26.63 15.4q-.88.5-.88 1.52t.88 1.53l27.73 16.01q.16.03.3.12.24.11.34.36.07.1.1.21.04.12.02.24.02.14-.01.26l-.02.06V71.7q0 4.07-2.8 6.53-.73.65-1.66 1.18l-9.33 5.4q-8.45 4.87-16.9 0L40.8 76.28l-3.93-2.26-1.32-.77q-.89-.51-2.66.5v31.8l8.87-5.12v-7.18q0-1.12.52-1.93.45-.69 1.26-1.16 1.79-1.03 3.57 0l9.33 5.39q7.55 4.36 15.1 0l3.74-2.16 16.26-9.39q3.55-2.05 3.55-6.14V46.04zm18.84-11.93Q112 31.2 109 29.45l-.11-.08-.05-.04L96 21.94l-10.24 5.9-6.58 3.8-.07.04q-.88.51-.88 1.53t.88 1.53L96 44.48l17.94-10.37zm-5.07-4.75l-.02-.01.02.01z"/></svg>
